<?xml version="1.0" encoding="us-ascii" standalone="no"?><svg xmlns="http://www.w3.org/2000/svg" xmlns:xlink="http://www.w3.org/1999/xlink" contentStyleType="text/css" height="866px" preserveAspectRatio="none" style="width:471px;height:866px;background:#FFFFFF;" version="1.1" viewBox="0 0 471 866" width="471px" zoomAndPan="magnify"><defs/><g><g id="B&#225;sica"><rect fill="#F1F1F1" height="50" rx="12.5" ry="12.5" style="stroke:#181818;stroke-width:0.5;" width="65" x="40.5" y="89.5"/><line style="stroke:#181818;stroke-width:0.5;" x1="40.5" x2="105.5" y1="115.7969" y2="115.7969"/><text fill="#000000" font-family="sans-serif" font-size="14" lengthAdjust="spacing" textLength="45" x="50.5" y="107.4951">B&#225;sica</text></g><g id="Gr&#225;ficos"><rect fill="#F1F1F1" height="50" rx="12.5" ry="12.5" style="stroke:#181818;stroke-width:0.5;" width="79" x="33.5" y="219"/><line style="stroke:#181818;stroke-width:0.5;" x1="33.5" x2="112.5" y1="245.2969" y2="245.2969"/><text fill="#000000" font-family="sans-serif" font-size="14" lengthAdjust="spacing" textLength="59" x="43.5" y="236.9951">Gr&#225;ficos</text></g><g id="UndoRedo"><rect fill="#F1F1F1" height="50" rx="12.5" ry="12.5" style="stroke:#181818;stroke-width:0.5;" width="93" x="26.5" y="346"/><line style="stroke:#181818;stroke-width:0.5;" x1="26.5" x2="119.5" y1="372.2969" y2="372.2969"/><text fill="#000000" font-family="sans-serif" font-size="14" lengthAdjust="spacing" textLength="73" x="36.5" y="363.9951">UndoRedo</text></g><g id="ClienteServidor"><rect fill="#F1F1F1" height="50" rx="12.5" ry="12.5" style="stroke:#181818;stroke-width:0.5;" width="132" x="7" y="473"/><line style="stroke:#181818;stroke-width:0.5;" x1="7" x2="139" y1="499.2969" y2="499.2969"/><text fill="#000000" font-family="sans-serif" font-size="14" lengthAdjust="spacing" textLength="112" x="17" y="490.9951">ClienteServidor</text></g><g id="Ficheros"><rect fill="#F1F1F1" height="50" rx="12.5" ry="12.5" style="stroke:#181818;stroke-width:0.5;" width="80" x="33" y="600"/><line style="stroke:#181818;stroke-width:0.5;" x1="33" x2="113" y1="626.2969" y2="626.2969"/><text fill="#000000" font-family="sans-serif" font-size="14" lengthAdjust="spacing" textLength="60" x="43" y="617.9951">Ficheros</text></g><g id="BasesDatos"><rect fill="#F1F1F1" height="50" rx="12.5" ry="12.5" style="stroke:#181818;stroke-width:0.5;" width="103" x="21.5" y="727"/><line style="stroke:#181818;stroke-width:0.5;" x1="21.5" x2="124.5" y1="753.2969" y2="753.2969"/><text fill="#000000" font-family="sans-serif" font-size="14" lengthAdjust="spacing" textLength="83" x="31.5" y="744.9951">BasesDatos</text></g><ellipse cx="73" cy="16" fill="#222222" rx="10" ry="10" style="stroke:#222222;stroke-width:1.0;"/><ellipse cx="73" cy="849" fill="none" rx="11" ry="11" style="stroke:#222222;stroke-width:1.0;"/><ellipse cx="73" cy="849" fill="#222222" rx="6" ry="6" style="stroke:#222222;stroke-width:1.0;"/><g id="elem_GMN17"><path d="M141,87 L141,110.5 L105.6953,114.5 L141,118.5 L141,142.3984 A0,0 0 0 0 141,142.3984 L377,142.3984 A0,0 0 0 0 377,142.3984 L377,97 L367,87 L141,87 A0,0 0 0 0 141,87 " fill="#15D2F3" style="stroke:#181818;stroke-width:0.5;"/><path d="M367,87 L367,97 L377,97 L367,87 " fill="#15D2F3" style="stroke:#181818;stroke-width:0.5;"/><text fill="#000000" font-family="sans-serif" font-size="13" lengthAdjust="spacing" textLength="215" x="147" y="104.0669">Juego de Mastermind con interfaz</text><text fill="#000000" font-family="sans-serif" font-size="13" lengthAdjust="spacing" textLength="201" x="147" y="119.1997">de consola y con casos de uso:</text><text fill="#000000" font-family="sans-serif" font-size="13" lengthAdjust="spacing" textLength="164" x="147" y="134.3325">Start, Propose y Resume.</text></g><g id="elem_GMN20"><path d="M148,231.5 L148,240 L112.641,244 L148,248 L148,256.6328 A0,0 0 0 0 148,256.6328 L342,256.6328 A0,0 0 0 0 342,256.6328 L342,241.5 L332,231.5 L148,231.5 A0,0 0 0 0 148,231.5 " fill="#15D2F3" style="stroke:#181818;stroke-width:0.5;"/><path d="M332,231.5 L332,241.5 L342,241.5 L332,231.5 " fill="#15D2F3" style="stroke:#181818;stroke-width:0.5;"/><text fill="#000000" font-family="sans-serif" font-size="13" lengthAdjust="spacing" textLength="173" x="154" y="248.5669">A&#241;adiendo interfaz gr&#225;fica.</text></g><g id="elem_GMN23"><path d="M155,351 L155,367 L119.828,371 L155,375 L155,391.2656 A0,0 0 0 0 155,391.2656 L423,391.2656 A0,0 0 0 0 423,391.2656 L423,361 L413,351 L155,351 A0,0 0 0 0 155,351 " fill="#15D2F3" style="stroke:#181818;stroke-width:0.5;"/><path d="M413,351 L413,361 L423,361 L413,351 " fill="#15D2F3" style="stroke:#181818;stroke-width:0.5;"/><text fill="#000000" font-family="sans-serif" font-size="13" lengthAdjust="spacing" textLength="247" x="161" y="368.0669">A&#241;adiendo funcionalidad con deshacer</text><text fill="#000000" font-family="sans-serif" font-size="13" lengthAdjust="spacing" textLength="119" x="161" y="383.1997">y rehacer jugadas.</text></g><g id="elem_GMN26"><path d="M174,485.5 L174,494 L139.193,498 L174,502 L174,510.6328 A0,0 0 0 0 174,510.6328 L446,510.6328 A0,0 0 0 0 446,510.6328 L446,495.5 L436,485.5 L174,485.5 A0,0 0 0 0 174,485.5 " fill="#15D2F3" style="stroke:#181818;stroke-width:0.5;"/><path d="M436,485.5 L436,495.5 L446,495.5 L436,485.5 " fill="#15D2F3" style="stroke:#181818;stroke-width:0.5;"/><text fill="#000000" font-family="sans-serif" font-size="13" lengthAdjust="spacing" textLength="251" x="180" y="502.5669">A&#241;adiendo distribuci&#243;n cliente/servidor.</text></g><g id="elem_GMN29"><path d="M148,605 L148,621 L113.023,625 L148,629 L148,645.2656 A0,0 0 0 0 148,645.2656 L434,645.2656 A0,0 0 0 0 434,645.2656 L434,615 L424,605 L148,605 A0,0 0 0 0 148,605 " fill="#15D2F3" style="stroke:#181818;stroke-width:0.5;"/><path d="M424,605 L424,615 L434,615 L424,605 " fill="#15D2F3" style="stroke:#181818;stroke-width:0.5;"/><text fill="#000000" font-family="sans-serif" font-size="13" lengthAdjust="spacing" textLength="265" x="154" y="622.0669">A&#241;adiendo funcionalidad con persistencia</text><text fill="#000000" font-family="sans-serif" font-size="13" lengthAdjust="spacing" textLength="75" x="154" y="637.1997">de ficheros.</text></g><g id="elem_GMN32"><path d="M159.5,739.5 L159.5,748 L124.814,752 L159.5,756 L159.5,764.6328 A0,0 0 0 0 159.5,764.6328 L464.5,764.6328 A0,0 0 0 0 464.5,764.6328 L464.5,749.5 L454.5,739.5 L159.5,739.5 A0,0 0 0 0 159.5,739.5 " fill="#15D2F3" style="stroke:#181818;stroke-width:0.5;"/><path d="M454.5,739.5 L454.5,749.5 L464.5,749.5 L454.5,739.5 " fill="#15D2F3" style="stroke:#181818;stroke-width:0.5;"/><text fill="#000000" font-family="sans-serif" font-size="13" lengthAdjust="spacing" textLength="284" x="165.5" y="756.5669">Adaptando persistencia con bases de datos.</text></g><!--link *start* to B?sica--><g id="link_*start*_B&#225;sica"><path d="M73,26.253 C73,40.594 73,62.663 73,83.102 " fill="none" id="*start*-to-B&#225;sica" style="stroke:#181818;stroke-width:1.0;"/><polygon fill="#181818" points="73,89.102,77,80.102,73,84.102,69,80.102,73,89.102" style="stroke:#181818;stroke-width:1.0;"/></g><!--link B?sica to Gr?ficos--><g id="link_B&#225;sica_Gr&#225;ficos"><path d="M73,139.782 C73,162.469 73,190.151 73,212.809 " fill="none" id="B&#225;sica-to-Gr&#225;ficos" style="stroke:#181818;stroke-width:1.0;"/><polygon fill="#181818" points="73,218.809,77,209.809,73,213.809,69,209.809,73,218.809" style="stroke:#181818;stroke-width:1.0;"/><text fill="#000000" font-family="sans-serif" font-size="13" lengthAdjust="spacing" textLength="168" x="74" y="185.0669">Mantenimiento adaptativo</text></g><!--link Gr?ficos to UndoRedo--><g id="link_Gr&#225;ficos_UndoRedo"><path d="M73,269.101 C73,291.236 73,317.861 73,339.973 " fill="none" id="Gr&#225;ficos-to-UndoRedo" style="stroke:#181818;stroke-width:1.0;"/><polygon fill="#181818" points="73,345.973,77,336.973,73,340.973,69,336.973,73,345.973" style="stroke:#181818;stroke-width:1.0;"/><text fill="#000000" font-family="sans-serif" font-size="13" lengthAdjust="spacing" textLength="164" x="74" y="312.0669">Mantenimiento perfectivo</text></g><!--link UndoRedo to ClienteServidor--><g id="link_UndoRedo_ClienteServidor"><path d="M73,396.101 C73,418.236 73,444.861 73,466.973 " fill="none" id="UndoRedo-to-ClienteServidor" style="stroke:#181818;stroke-width:1.0;"/><polygon fill="#181818" points="73,472.973,77,463.973,73,467.973,69,463.973,73,472.973" style="stroke:#181818;stroke-width:1.0;"/><text fill="#000000" font-family="sans-serif" font-size="13" lengthAdjust="spacing" textLength="168" x="74" y="439.0669">Mantenimiento adaptativo</text></g><!--link ClienteServidor to Ficheros--><g id="link_ClienteServidor_Ficheros"><path d="M73,523.101 C73,545.236 73,571.861 73,593.973 " fill="none" id="ClienteServidor-to-Ficheros" style="stroke:#181818;stroke-width:1.0;"/><polygon fill="#181818" points="73,599.973,77,590.973,73,594.973,69,590.973,73,599.973" style="stroke:#181818;stroke-width:1.0;"/><text fill="#000000" font-family="sans-serif" font-size="13" lengthAdjust="spacing" textLength="164" x="74" y="566.0669">Mantenimiento perfectivo</text></g><!--link Ficheros to BasesDatos--><g id="link_Ficheros_BasesDatos"><path d="M73,650.101 C73,672.236 73,698.861 73,720.973 " fill="none" id="Ficheros-to-BasesDatos" style="stroke:#181818;stroke-width:1.0;"/><polygon fill="#181818" points="73,726.973,77,717.973,73,721.973,69,717.973,73,726.973" style="stroke:#181818;stroke-width:1.0;"/><text fill="#000000" font-family="sans-serif" font-size="13" lengthAdjust="spacing" textLength="168" x="74" y="693.0669">Mantenimiento adaptativo</text></g><!--link BasesDatos to *end*--><g id="link_BasesDatos_*end*"><path d="M73,777.4649 C73,797.0364 73,817.4921 73,831.7967 " fill="none" id="BasesDatos-to-*end*" style="stroke:#181818;stroke-width:1.0;"/><polygon fill="#181818" points="73,837.7967,77,828.7967,73,832.7967,69,828.7967,73,837.7967" style="stroke:#181818;stroke-width:1.0;"/></g><!--SRC=[ZPBDIiD04CVlUOe1Rs8L5Iyz2DPIGIX8YoVnCDsTf2ljRjdP5EhRz174HyYBETbybT20kIGx-S__Dn_B0GF1f3YoKPXmFBtuufWQvRW-lrlj5gHTVNpU6BA1bkJtHZkVB6DqPjIQlEHKnmaoyHI319AFoqyOZHvRIlsEiPOrdgEOMhCjpHsWnfqOcRrBMabCQ8hfwNVaKr9HtoYYl5ViCAKdZCbDJyEiHb7rr_OyZEaqCKL6ayXZdOpCcsmTmANDdE3Yzc5wDxjF05vpoXneWZbo8ByrLeDo5enGV8hV8f6V4c6tGJZ4VmfP81BEsOr587lnuGhUlDiv9X4jYFCjNISaPcK1_JAwkNU5F1K_gAKfcMx3XgpIuR1Jkv6pHcbkbN4MDqPZrPOcNgCYBxe3U8hVy9LdCaSUflGtU1Qc3GTlLhaonQ_Cg4gvuJfdsBnTz3zRa3l2WYA9OxMTj7OOPfpSZHDAl3ibvDGoCbQblhJMPKxd-mS0]--></g></svg>