<?xml version="1.0" encoding="us-ascii" standalone="no"?><svg xmlns="http://www.w3.org/2000/svg" xmlns:xlink="http://www.w3.org/1999/xlink" contentStyleType="text/css" height="442px" preserveAspectRatio="none" style="width:1094px;height:442px;background:#FFFFFF;" version="1.1" viewBox="0 0 1094 442" width="1094px" zoomAndPan="magnify"><defs/><g><g id="elem_Mastermind"><rect fill="#F1F1F1" height="36.2969" style="stroke:#181818;stroke-width:0.5;" width="104" x="458.5" y="7"/><text fill="#000000" font-family="sans-serif" font-size="14" lengthAdjust="spacing" textLength="90" x="465.5" y="21.9951">:Mastermind</text><line style="stroke:#181818;stroke-width:0.5;" x1="459.5" x2="561.5" y1="27.2969" y2="27.2969"/></g><g id="elem_Board"><rect fill="#F1F1F1" height="44.5938" style="stroke:#181818;stroke-width:0.5;" width="109" x="456" y="103"/><text fill="#000000" font-family="sans-serif" font-size="14" lengthAdjust="spacing" textLength="47" x="487" y="117.9951">:Board</text><line style="stroke:#181818;stroke-width:0.5;" x1="457" x2="564" y1="123.2969" y2="123.2969"/><text fill="#000000" font-family="sans-serif" font-size="14" lengthAdjust="spacing" textLength="97" x="462" y="140.292">attempts = 5</text></g><g id="elem_SecretCombination"><rect fill="#F1F1F1" height="36.2969" style="stroke:#181818;stroke-width:0.5;" width="160" x="430.5" y="208"/><text fill="#000000" font-family="sans-serif" font-size="14" lengthAdjust="spacing" textLength="146" x="437.5" y="222.9951">:SecretCombination</text><line style="stroke:#181818;stroke-width:0.5;" x1="431.5" x2="589.5" y1="228.2969" y2="228.2969"/></g><g id="elem_ProposedCombination1"><rect fill="#F1F1F1" height="36.2969" style="stroke:#181818;stroke-width:0.5;" width="180" x="73.5" y="208"/><text fill="#000000" font-family="sans-serif" font-size="14" lengthAdjust="spacing" textLength="166" x="80.5" y="222.9951">:ProposedCombination</text><line style="stroke:#181818;stroke-width:0.5;" x1="74.5" x2="252.5" y1="228.2969" y2="228.2969"/></g><g id="elem_ProposedCombination2"><rect fill="#F1F1F1" height="36.2969" style="stroke:#181818;stroke-width:0.5;" width="180" x="754.5" y="208"/><text fill="#000000" font-family="sans-serif" font-size="14" lengthAdjust="spacing" textLength="166" x="761.5" y="222.9951">:ProposedCombination</text><line style="stroke:#181818;stroke-width:0.5;" x1="755.5" x2="933.5" y1="228.2969" y2="228.2969"/></g><g id="elem_Color1"><rect fill="#F1F1F1" height="36.2969" style="stroke:#181818;stroke-width:0.5;" width="57" x="7" y="304"/><text fill="#000000" font-family="sans-serif" font-size="14" lengthAdjust="spacing" textLength="43" x="14" y="318.9951">:Color</text><line style="stroke:#181818;stroke-width:0.5;" x1="8" x2="63" y1="324.2969" y2="324.2969"/></g><g id="elem_Color2"><rect fill="#F1F1F1" height="36.2969" style="stroke:#181818;stroke-width:0.5;" width="57" x="123" y="304"/><text fill="#000000" font-family="sans-serif" font-size="14" lengthAdjust="spacing" textLength="43" x="130" y="318.9951">:Color</text><line style="stroke:#181818;stroke-width:0.5;" x1="124" x2="179" y1="324.2969" y2="324.2969"/></g><g id="elem_Color3"><rect fill="#F1F1F1" height="36.2969" style="stroke:#181818;stroke-width:0.5;" width="57" x="715" y="304"/><text fill="#000000" font-family="sans-serif" font-size="14" lengthAdjust="spacing" textLength="43" x="722" y="318.9951">:Color</text><line style="stroke:#181818;stroke-width:0.5;" x1="716" x2="771" y1="324.2969" y2="324.2969"/></g><g id="elem_Color4"><rect fill="#F1F1F1" height="36.2969" style="stroke:#181818;stroke-width:0.5;" width="57" x="814" y="304"/><text fill="#000000" font-family="sans-serif" font-size="14" lengthAdjust="spacing" textLength="43" x="821" y="318.9951">:Color</text><line style="stroke:#181818;stroke-width:0.5;" x1="815" x2="870" y1="324.2969" y2="324.2969"/></g><g id="elem_Color5"><rect fill="#F1F1F1" height="36.2969" style="stroke:#181818;stroke-width:0.5;" width="57" x="447" y="304"/><text fill="#000000" font-family="sans-serif" font-size="14" lengthAdjust="spacing" textLength="43" x="454" y="318.9951">:Color</text><line style="stroke:#181818;stroke-width:0.5;" x1="448" x2="503" y1="324.2969" y2="324.2969"/></g><g id="elem_Color6"><rect fill="#F1F1F1" height="36.2969" style="stroke:#181818;stroke-width:0.5;" width="57" x="539" y="304"/><text fill="#000000" font-family="sans-serif" font-size="14" lengthAdjust="spacing" textLength="43" x="546" y="318.9951">:Color</text><line style="stroke:#181818;stroke-width:0.5;" x1="540" x2="595" y1="324.2969" y2="324.2969"/></g><g id="elem_Result1"><rect fill="#F1F1F1" height="36.2969" style="stroke:#181818;stroke-width:0.5;" width="64" x="345.5" y="304"/><text fill="#000000" font-family="sans-serif" font-size="14" lengthAdjust="spacing" textLength="50" x="352.5" y="318.9951">:Result</text><line style="stroke:#181818;stroke-width:0.5;" x1="346.5" x2="408.5" y1="324.2969" y2="324.2969"/></g><g id="elem_Result2"><rect fill="#F1F1F1" height="36.2969" style="stroke:#181818;stroke-width:0.5;" width="64" x="937.5" y="304"/><text fill="#000000" font-family="sans-serif" font-size="14" lengthAdjust="spacing" textLength="50" x="944.5" y="318.9951">:Result</text><line style="stroke:#181818;stroke-width:0.5;" x1="938.5" x2="1000.5" y1="324.2969" y2="324.2969"/></g><g id="elem_White1"><rect fill="#F1F1F1" height="36.2969" style="stroke:#181818;stroke-width:0.5;" width="62" x="348.5" y="400"/><text fill="#000000" font-family="sans-serif" font-size="14" lengthAdjust="spacing" textLength="48" x="355.5" y="414.9951">:White</text><line style="stroke:#181818;stroke-width:0.5;" x1="349.5" x2="409.5" y1="420.2969" y2="420.2969"/></g><g id="elem_Black1"><rect fill="#F1F1F1" height="36.2969" style="stroke:#181818;stroke-width:0.5;" width="58" x="581.5" y="400"/><text fill="#000000" font-family="sans-serif" font-size="14" lengthAdjust="spacing" textLength="44" x="588.5" y="414.9951">:Black</text><line style="stroke:#181818;stroke-width:0.5;" x1="582.5" x2="638.5" y1="420.2969" y2="420.2969"/></g><g id="elem_Black2"><rect fill="#F1F1F1" height="36.2969" style="stroke:#181818;stroke-width:0.5;" width="58" x="1030.5" y="400"/><text fill="#000000" font-family="sans-serif" font-size="14" lengthAdjust="spacing" textLength="44" x="1037.5" y="414.9951">:Black</text><line style="stroke:#181818;stroke-width:0.5;" x1="1031.5" x2="1087.5" y1="420.2969" y2="420.2969"/></g><g id="elem_White3"><rect fill="#F1F1F1" height="36.2969" style="stroke:#181818;stroke-width:0.5;" width="62" x="251.5" y="400"/><text fill="#000000" font-family="sans-serif" font-size="14" lengthAdjust="spacing" textLength="48" x="258.5" y="414.9951">:White</text><line style="stroke:#181818;stroke-width:0.5;" x1="252.5" x2="312.5" y1="420.2969" y2="420.2969"/></g><g id="elem_Black3"><rect fill="#F1F1F1" height="36.2969" style="stroke:#181818;stroke-width:0.5;" width="58" x="467.5" y="400"/><text fill="#000000" font-family="sans-serif" font-size="14" lengthAdjust="spacing" textLength="44" x="474.5" y="414.9951">:Black</text><line style="stroke:#181818;stroke-width:0.5;" x1="468.5" x2="524.5" y1="420.2969" y2="420.2969"/></g><g id="elem_Black4"><rect fill="#F1F1F1" height="36.2969" style="stroke:#181818;stroke-width:0.5;" width="58" x="937.5" y="400"/><text fill="#000000" font-family="sans-serif" font-size="14" lengthAdjust="spacing" textLength="44" x="944.5" y="414.9951">:Black</text><line style="stroke:#181818;stroke-width:0.5;" x1="938.5" x2="994.5" y1="420.2969" y2="420.2969"/></g><g id="elem_proposedCombinations"><path d="M185,113 L185,138.1328 L286,138.1328 L286,123 L276,113 L185,113 " fill="#FEFFDD" style="stroke:#181818;stroke-width:0.5;"/><path d="M276,113 L276,123 L286,123 L276,113 " fill="#FEFFDD" style="stroke:#181818;stroke-width:1.0;"/><text fill="#000000" font-family="sans-serif" font-size="13" lengthAdjust="spacing" textLength="80" x="191" y="130.0669">attempts - 1</text></g><g id="elem_winnerBlacks"><path d="M1042,309.5 L1042,334.6328 L1071,334.6328 L1071,319.5 L1061,309.5 L1042,309.5 " fill="#FEFFDD" style="stroke:#181818;stroke-width:0.5;"/><path d="M1061,309.5 L1061,319.5 L1071,319.5 L1061,309.5 " fill="#FEFFDD" style="stroke:#181818;stroke-width:1.0;"/><text fill="#000000" font-family="sans-serif" font-size="13" lengthAdjust="spacing" textLength="8" x="1048" y="326.5669">4</text></g><g id="elem_loserBlacks"><path d="M631,309.5 L631,334.6328 L676,334.6328 L676,319.5 L666,309.5 L631,309.5 " fill="#FEFFDD" style="stroke:#181818;stroke-width:0.5;"/><path d="M666,309.5 L666,319.5 L676,319.5 L666,309.5 " fill="#FEFFDD" style="stroke:#181818;stroke-width:1.0;"/><text fill="#000000" font-family="sans-serif" font-size="13" lengthAdjust="spacing" textLength="24" x="637" y="326.5669">0..3</text></g><g id="elem_loserWhites"><path d="M262,309.5 L262,334.6328 L307,334.6328 L307,319.5 L297,309.5 L262,309.5 " fill="#FEFFDD" style="stroke:#181818;stroke-width:0.5;"/><path d="M297,309.5 L297,319.5 L307,319.5 L297,309.5 " fill="#FEFFDD" style="stroke:#181818;stroke-width:1.0;"/><text fill="#000000" font-family="sans-serif" font-size="13" lengthAdjust="spacing" textLength="24" x="268" y="326.5669">0..4</text></g><g id="elem_colors1"><path d="M9,213.5 L9,238.6328 L38,238.6328 L38,223.5 L28,213.5 L9,213.5 " fill="#FEFFDD" style="stroke:#181818;stroke-width:0.5;"/><path d="M28,213.5 L28,223.5 L38,223.5 L28,213.5 " fill="#FEFFDD" style="stroke:#181818;stroke-width:1.0;"/><text fill="#000000" font-family="sans-serif" font-size="13" lengthAdjust="spacing" textLength="8" x="15" y="230.5669">4</text></g><g id="elem_colors2"><path d="M690,213.5 L690,238.6328 L719,238.6328 L719,223.5 L709,213.5 L690,213.5 " fill="#FEFFDD" style="stroke:#181818;stroke-width:0.5;"/><path d="M709,213.5 L709,223.5 L719,223.5 L709,213.5 " fill="#FEFFDD" style="stroke:#181818;stroke-width:1.0;"/><text fill="#000000" font-family="sans-serif" font-size="13" lengthAdjust="spacing" textLength="8" x="696" y="230.5669">4</text></g><g id="elem_colors3"><path d="M626,213.5 L626,238.6328 L655,238.6328 L655,223.5 L645,213.5 L626,213.5 " fill="#FEFFDD" style="stroke:#181818;stroke-width:0.5;"/><path d="M645,213.5 L645,223.5 L655,223.5 L645,213.5 " fill="#FEFFDD" style="stroke:#181818;stroke-width:1.0;"/><text fill="#000000" font-family="sans-serif" font-size="13" lengthAdjust="spacing" textLength="8" x="632" y="230.5669">4</text></g><!--link Mastermind to Board--><g id="link_Mastermind_Board"><path codeLine="23" d="M510.5,55.157 C510.5,71.693 510.5,78.778 510.5,96.716 " fill="none" id="Mastermind-Board" style="stroke:#181818;stroke-width:1.0;"/><polygon fill="#181818" points="510.5,43.157,506.5,49.157,510.5,55.157,514.5,49.157,510.5,43.157" style="stroke:#181818;stroke-width:1.0;"/><polygon fill="#181818" points="510.5,102.716,514.5,93.716,510.5,97.716,506.5,93.716,510.5,102.716" style="stroke:#181818;stroke-width:1.0;"/></g><!--link Board to ProposedCombination1--><g id="link_Board_ProposedCombination1"><path codeLine="25" d="M444.3561,145.2759 C381.1811,163.2089 294.799,187.7295 229.377,206.3005 " fill="none" id="Board-ProposedCombination1" style="stroke:#181818;stroke-width:1.0;"/><polygon fill="#181818" points="455.9,141.999,449.0357,139.7895,444.3561,145.2759,451.2203,147.4854,455.9,141.999" style="stroke:#181818;stroke-width:1.0;"/><polygon fill="#181818" points="223.605,207.939,233.3552,209.3293,228.415,206.5736,231.1706,201.6333,223.605,207.939" style="stroke:#181818;stroke-width:1.0;"/></g><!--link Board to ProposedCombination2--><g id="link_Board_ProposedCombination2"><path codeLine="26" d="M576.7889,146.0495 C637.7689,164.0335 718.639,187.8829 780.851,206.2289 " fill="none" id="Board-ProposedCombination2" style="stroke:#181818;stroke-width:1.0;"/><polygon fill="#181818" points="565.279,142.655,569.9025,148.1889,576.7889,146.0495,572.1654,140.5156,565.279,142.655" style="stroke:#181818;stroke-width:1.0;"/><polygon fill="#181818" points="786.606,207.926,779.1049,201.5437,781.8102,206.5117,776.8421,209.217,786.606,207.926" style="stroke:#181818;stroke-width:1.0;"/></g><!--link Board to SecretCombination--><g id="link_Board_SecretCombination"><path codeLine="27" d="M510.5,160.36 C510.5,178.27 510.5,185.266 510.5,201.779 " fill="none" id="Board-SecretCombination" style="stroke:#181818;stroke-width:1.0;"/><polygon fill="#181818" points="510.5,148.36,506.5,154.36,510.5,160.36,514.5,154.36,510.5,148.36" style="stroke:#181818;stroke-width:1.0;"/><polygon fill="#181818" points="510.5,207.779,514.5,198.779,510.5,202.779,506.5,198.779,510.5,207.779" style="stroke:#181818;stroke-width:1.0;"/></g><!--link Board to Result1--><g id="link_Board_Result1"><path codeLine="28" d="M465.359,155.0902 C444.414,169.6462 428.72,183.708 412.5,208 C392.314,238.232 384.2342,274.7496 380.5992,298.0676 " fill="none" id="Board-Result1" style="stroke:#181818;stroke-width:1.0;"/><polygon fill="#181818" points="475.213,148.242,468.0032,148.3814,465.359,155.0902,472.5687,154.9508,475.213,148.242" style="stroke:#181818;stroke-width:1.0;"/><polygon fill="#181818" points="379.675,303.996,385.0135,295.7195,380.4451,299.0557,377.109,294.4873,379.675,303.996" style="stroke:#181818;stroke-width:1.0;"/></g><!--link Board to Result2--><g id="link_Board_Result2"><path codeLine="29" d="M577.0433,129.614 C682.9293,135.535 898.559,153.73 951.5,208 C976.469,233.596 975.9318,273.1049 972.9928,297.8449 " fill="none" id="Board-Result2" style="stroke:#181818;stroke-width:1.0;"/><polygon fill="#181818" points="565.062,128.944,570.8293,133.2727,577.0433,129.614,571.276,125.2852,565.062,128.944" style="stroke:#181818;stroke-width:1.0;"/><polygon fill="#181818" points="972.285,303.803,977.3188,295.3377,972.8748,298.8379,969.3746,294.394,972.285,303.803" style="stroke:#181818;stroke-width:1.0;"/></g><!--link proposedCombinations to ProposedCombination1--><g id="link_proposedCombinations_ProposedCombination1"><path codeLine="30" d="M226.958,138.186 C214.367,155.411 190.745,187.727 176.143,207.703 " fill="none" id="proposedCombinations-ProposedCombination1" style="stroke:#181818;stroke-width:1.0;stroke-dasharray:7.0,7.0;"/></g><!--link ProposedCombination1 to Color1--><g id="link_ProposedCombination1_Color1"><path codeLine="31" d="M130.6479,251.1258 C107.5939,268.0558 86.9205,283.2386 63.776,300.2346 " fill="none" id="ProposedCombination1-Color1" style="stroke:#181818;stroke-width:1.0;"/><polygon fill="#181818" points="140.32,244.023,133.1163,244.3504,130.6479,251.1258,137.8516,250.7985,140.32,244.023" style="stroke:#181818;stroke-width:1.0;"/><polygon fill="#181818" points="58.9399,303.786,68.5616,301.683,62.97,300.8265,63.8265,295.2349,58.9399,303.786" style="stroke:#181818;stroke-width:1.0;"/></g><!--link ProposedCombination1 to Color2--><g id="link_ProposedCombination1_Color2"><path codeLine="32" d="M159.7796,256.1444 C157.6146,273.1054 156.6067,280.9933 154.4467,297.9163 " fill="none" id="ProposedCombination1-Color2" style="stroke:#181818;stroke-width:1.0;"/><polygon fill="#181818" points="161.299,244.241,156.5715,249.6862,159.7796,256.1444,164.5071,250.6992,161.299,244.241" style="stroke:#181818;stroke-width:1.0;"/><polygon fill="#181818" points="153.687,303.868,158.7943,295.4469,154.32,298.9082,150.8587,294.434,153.687,303.868" style="stroke:#181818;stroke-width:1.0;"/></g><!--link ProposedCombination1 to Result1--><g id="link_ProposedCombination1_Result1"><path codeLine="33" d="M202.254,244.023 C243.206,262.011 301.5546,287.6411 339.8276,304.4521 " fill="none" id="ProposedCombination1-to-Result1" style="stroke:#181818;stroke-width:1.0;"/><polygon fill="#181818" points="345.321,306.865,338.6895,299.5833,340.7431,304.8542,335.4722,306.9079,345.321,306.865" style="stroke:#181818;stroke-width:1.0;"/></g><!--link ProposedCombination2 to Color3--><g id="link_ProposedCombination2_Color3"><path codeLine="34" d="M817.1908,252.4164 C798.9668,269.3774 784.482,282.8571 766.3,299.7801 " fill="none" id="ProposedCombination2-Color3" style="stroke:#181818;stroke-width:1.0;"/><polygon fill="#181818" points="825.975,244.241,818.8578,245.4006,817.1908,252.4164,824.308,251.2568,825.975,244.241" style="stroke:#181818;stroke-width:1.0;"/><polygon fill="#181818" points="761.908,303.868,771.2212,300.6642,765.568,300.4615,765.7707,294.8082,761.908,303.868" style="stroke:#181818;stroke-width:1.0;"/></g><!--link ProposedCombination2 to Color4--><g id="link_ProposedCombination2_Color4"><path codeLine="35" d="M843.8776,256.2383 C843.5166,273.1993 843.3526,280.9464 842.9926,297.8694 " fill="none" id="ProposedCombination2-Color4" style="stroke:#181818;stroke-width:1.0;"/><polygon fill="#181818" points="844.133,244.241,840.0062,250.1545,843.8776,256.2383,848.0044,250.3248,844.133,244.241" style="stroke:#181818;stroke-width:1.0;"/><polygon fill="#181818" points="842.865,303.868,847.0555,294.9551,842.9713,298.8691,839.0573,294.785,842.865,303.868" style="stroke:#181818;stroke-width:1.0;"/></g><!--link ProposedCombination2 to Result2--><g id="link_ProposedCombination2_Result2"><path codeLine="36" d="M867.137,244.023 C889.65,260.953 919.2115,283.184 941.8135,300.18 " fill="none" id="ProposedCombination2-to-Result2" style="stroke:#181818;stroke-width:1.0;"/><polygon fill="#181818" points="946.609,303.786,941.8198,295.18,942.6128,300.781,937.0118,301.5739,946.609,303.786" style="stroke:#181818;stroke-width:1.0;"/></g><!--link SecretCombination to Color5--><g id="link_SecretCombination_Color5"><path codeLine="37" d="M499.8929,255.4868 C493.5779,272.4478 490.2736,281.3221 483.9726,298.2451 " fill="none" id="SecretCombination-Color5" style="stroke:#181818;stroke-width:1.0;"/><polygon fill="#181818" points="504.08,244.241,498.2378,248.4682,499.8929,255.4868,505.7351,251.2596,504.08,244.241" style="stroke:#181818;stroke-width:1.0;"/><polygon fill="#181818" points="481.879,303.868,488.768,296.8294,483.6237,299.1823,481.2708,294.0379,481.879,303.868" style="stroke:#181818;stroke-width:1.0;"/></g><!--link SecretCombination to Color6--><g id="link_SecretCombination_Color6"><path codeLine="38" d="M527.1767,254.5021 C537.4607,271.4631 543.7389,281.8146 554.0009,298.7376 " fill="none" id="SecretCombination-Color6" style="stroke:#181818;stroke-width:1.0;"/><polygon fill="#181818" points="520.955,244.241,520.6454,251.4455,527.1767,254.5021,527.4862,247.2977,520.955,244.241" style="stroke:#181818;stroke-width:1.0;"/><polygon fill="#181818" points="557.112,303.868,555.8657,294.0983,554.5195,299.5926,549.0251,298.2464,557.112,303.868" style="stroke:#181818;stroke-width:1.0;"/></g><!--link proposedCombinations to Result1--><g id="link_proposedCombinations_Result1"><path codeLine="39" d="M243.957,138.084 C267.96,170.961 336.596,264.973 364.98,303.851 " fill="none" id="proposedCombinations-Result1" style="stroke:#181818;stroke-width:1.0;stroke-dasharray:7.0,7.0;"/></g><!--link Result1 to White1--><g id="link_Result1_White1"><path codeLine="40" d="M378.1224,352.2383 C378.4834,369.199 378.6474,376.9469 379.0074,393.8697 " fill="none" id="Result1-White1" style="stroke:#181818;stroke-width:1.0;"/><polygon fill="#181818" points="377.867,340.241,373.9956,346.3248,378.1224,352.2383,381.9938,346.1545,377.867,340.241" style="stroke:#181818;stroke-width:1.0;"/><polygon fill="#181818" points="379.135,399.8683,382.9427,390.7853,379.0287,394.8694,374.9445,390.9554,379.135,399.8683" style="stroke:#181818;stroke-width:1.0;"/></g><!--link Result1 to Black1--><g id="link_Result1_Black1"><path codeLine="41" d="M421.0265,340.56 C466.5415,358.9225 532.0377,385.3458 575.7507,402.9808 " fill="none" id="Result1-Black1" style="stroke:#181818;stroke-width:1.0;"/><polygon fill="#181818" points="409.898,336.0703,413.9657,342.0246,421.0265,340.56,416.9588,334.6056,409.898,336.0703" style="stroke:#181818;stroke-width:1.0;"/><polygon fill="#181818" points="581.315,405.2256,574.4651,398.1489,576.6781,403.355,571.4721,405.5679,581.315,405.2256" style="stroke:#181818;stroke-width:1.0;"/></g><!--link Result2 to Black2--><g id="link_Result2_Black2"><path codeLine="42" d="M994.3059,348.9087 C1010.5449,365.8694 1022.7396,378.6126 1038.9496,395.5354 " fill="none" id="Result2-Black2" style="stroke:#181818;stroke-width:1.0;"/><polygon fill="#181818" points="986.007,340.241,987.2672,347.3411,994.3059,348.9087,993.0457,341.8086,986.007,340.241" style="stroke:#181818;stroke-width:1.0;"/><polygon fill="#181818" points="1043.1,399.8683,1039.763,390.602,1039.6413,396.2575,1033.9858,396.1359,1043.1,399.8683" style="stroke:#181818;stroke-width:1.0;"/></g><!--link Result1 to White3--><g id="link_Result1_White3"><path codeLine="43" d="M351.5457,348.6811 C334.4037,365.6418 321.182,378.7254 304.079,395.6482 " fill="none" id="Result1-White3" style="stroke:#181818;stroke-width:1.0;"/><polygon fill="#181818" points="360.076,340.241,352.9975,341.6176,351.5457,348.6811,358.6242,347.3044,360.076,340.241" style="stroke:#181818;stroke-width:1.0;"/><polygon fill="#181818" points="299.814,399.8683,309.025,396.3815,303.3682,396.3515,303.3982,390.6948,299.814,399.8683" style="stroke:#181818;stroke-width:1.0;"/></g><!--link Result1 to Black3--><g id="link_Result1_Black3"><path codeLine="44" d="M408.4666,347.461 C429.8996,364.3911 448.4827,379.0704 469.9997,396.0671 " fill="none" id="Result1-Black3" style="stroke:#181818;stroke-width:1.0;"/><polygon fill="#181818" points="399.05,340.0227,401.2789,346.8807,408.4666,347.461,406.2377,340.603,399.05,340.0227" style="stroke:#181818;stroke-width:1.0;"/><polygon fill="#181818" points="474.708,399.7863,470.125,391.0687,470.7844,396.687,465.1661,397.3464,474.708,399.7863" style="stroke:#181818;stroke-width:1.0;"/></g><!--link Result2 to Black4--><g id="link_Result2_Black4"><path codeLine="45" d="M968.5667,352.2349 C968.0247,369.1956 967.7784,376.9486 967.2384,393.8714 " fill="none" id="Result2-Black4" style="stroke:#181818;stroke-width:1.0;"/><polygon fill="#181818" points="968.95,340.241,964.7604,346.1102,968.5667,352.2349,972.7563,346.3657,968.95,340.241" style="stroke:#181818;stroke-width:1.0;"/><polygon fill="#181818" points="967.047,399.8683,971.332,391.0005,967.2065,394.8708,963.3361,390.7453,967.047,399.8683" style="stroke:#181818;stroke-width:1.0;"/></g><!--link winnerBlacks to Black4--><g id="link_winnerBlacks_Black4"><path codeLine="47" d="M1045.46,334.526 C1029.79,350.9005 1000.96,381.0084 982.811,399.9637 " fill="none" id="winnerBlacks-Black4" style="stroke:#181818;stroke-width:1.0;stroke-dasharray:7.0,7.0;"/></g><!--link winnerBlacks to Black2--><g id="link_winnerBlacks_Black2"><path codeLine="48" d="M1056.87,334.526 C1057.39,350.9005 1058.35,381.0084 1058.96,399.9637 " fill="none" id="winnerBlacks-Black2" style="stroke:#181818;stroke-width:1.0;stroke-dasharray:7.0,7.0;"/></g><!--link loserBlacks to Black1--><g id="link_loserBlacks_Black1"><path codeLine="50" d="M648.227,334.526 C640.737,350.9005 626.964,381.0084 618.293,399.9637 " fill="none" id="loserBlacks-Black1" style="stroke:#181818;stroke-width:1.0;stroke-dasharray:7.0,7.0;"/></g><!--link loserBlacks to Black3--><g id="link_loserBlacks_Black3"><path codeLine="51" d="M634.249,334.526 C606.9,350.9005 556.614,381.0084 524.954,399.9637 " fill="none" id="loserBlacks-Black3" style="stroke:#181818;stroke-width:1.0;stroke-dasharray:7.0,7.0;"/></g><!--link loserWhites to White1--><g id="link_loserWhites_White1"><path codeLine="53" d="M296.149,334.526 C312.697,350.9005 343.126,381.0084 362.282,399.9637 " fill="none" id="loserWhites-White1" style="stroke:#181818;stroke-width:1.0;stroke-dasharray:7.0,7.0;"/></g><!--link loserWhites to White3--><g id="link_loserWhites_White3"><path codeLine="54" d="M284.255,334.526 C283.906,350.9005 283.266,381.0084 282.862,399.9637 " fill="none" id="loserWhites-White3" style="stroke:#181818;stroke-width:1.0;stroke-dasharray:7.0,7.0;"/></g><!--link colors1 to Color1--><g id="link_colors1_Color1"><path codeLine="56" d="M24.9714,238.526 C27.0618,254.901 30.9053,285.008 33.3252,303.964 " fill="none" id="colors1-Color1" style="stroke:#181818;stroke-width:1.0;stroke-dasharray:7.0,7.0;"/></g><!--link colors1 to Color2--><g id="link_colors1_Color2"><path codeLine="57" d="M38.1832,237.783 C60.116,253.89 101.6556,284.395 127.888,303.66 " fill="none" id="colors1-Color2" style="stroke:#181818;stroke-width:1.0;stroke-dasharray:7.0,7.0;"/></g><!--link colors2 to Color3--><g id="link_colors2_Color3"><path codeLine="59" d="M709.282,238.526 C716.076,254.901 728.567,285.008 736.432,303.964 " fill="none" id="colors2-Color3" style="stroke:#181818;stroke-width:1.0;stroke-dasharray:7.0,7.0;"/></g><!--link colors2 to Color4--><g id="link_colors2_Color4"><path codeLine="60" d="M719.008,236.882 C742.398,252.814 788.724,284.37 817.51,303.978 " fill="none" id="colors2-Color4" style="stroke:#181818;stroke-width:1.0;stroke-dasharray:7.0,7.0;"/></g><!--link colors3 to Color5--><g id="link_colors3_Color5"><path codeLine="62" d="M625.857,235.342 C598.568,250.888 539.497,284.541 504.061,304.729 " fill="none" id="colors3-Color5" style="stroke:#181818;stroke-width:1.0;stroke-dasharray:7.0,7.0;"/></g><!--link colors3 to Color6--><g id="link_colors3_Color6"><path codeLine="63" d="M631.549,238.526 C618.833,254.901 595.451,285.008 580.73,303.964 " fill="none" id="colors3-Color6" style="stroke:#181818;stroke-width:1.0;stroke-dasharray:7.0,7.0;"/></g><!--SRC=[dL8zJyCm49tnhx0w8ZKYjjC12OPsHa8mCAUf9LBIk8gD613_7NA-n6vzRYMcNDx7wUxyp7Ql6ySNzq-rTNeujFrkmMlBmoypasHjwi6pKF5lTbCxfmz7P_a3hzXFaBxgPj1kOmxRjgzTQtgm9MWmF0_cQApUdLi8lFoNImJNndHc01rKPPR9UsIMKLccoZAhmBne-zave7nPNk2Y-TxUMwU1WYfohRkw-V2lDbPv9jzDPZrvHZ4MCiHlbyj7dnhM6wVvOWxEafTWEgPFPfdF6PZ985pcHSodsOl8wTG991Wr5oyAUXuAzEqmQLS4WXR48r9xHXtaDO6Y1V7AoQaYUtMHNMNFDOsFN-_1g9vW65AS9S84uPM4Ln9UXQbJ4BMljk_r08HbySyuAEf9M62RkwAGqAdxMtLg5DMpeIHH6Tgeq0OMmZQ-7Wru8WgL9qiru_rjoV0xgZ1pvuWWV09LObR91564RrB9MLKboEeN]--></g></svg>