<?xml version="1.0" encoding="us-ascii" standalone="no"?><svg xmlns="http://www.w3.org/2000/svg" xmlns:xlink="http://www.w3.org/1999/xlink" contentStyleType="text/css" height="808px" preserveAspectRatio="none" style="width:736px;height:808px;background:#FFFFFF;" version="1.1" viewBox="0 0 736 808" width="736px" zoomAndPan="magnify"><defs/><g><!--class Mastermind--><g id="elem_Mastermind"><rect codeLine="1" fill="#F1F1F1" height="48" id="Mastermind" rx="2.5" ry="2.5" style="stroke:#181818;stroke-width:0.5;" width="117" x="310" y="7"/><ellipse cx="325" cy="23" fill="#ADD1B2" rx="11" ry="11" style="stroke:#181818;stroke-width:1.0;"/><path d="M327.3438,18.6719 C326.4063,18.2344 325.8125,18.0938 324.9375,18.0938 C322.3125,18.0938 320.3125,20.1719 320.3125,22.8906 L320.3125,24.0156 C320.3125,26.5938 322.4219,28.4844 325.3125,28.4844 C326.5313,28.4844 327.6875,28.1875 328.4375,27.6406 C329.0156,27.2344 329.3438,26.7813 329.3438,26.3906 C329.3438,25.9375 328.9531,25.5469 328.4844,25.5469 C328.2656,25.5469 328.0625,25.625 327.875,25.8125 C327.4219,26.2969 327.4219,26.2969 327.2344,26.3906 C326.8125,26.6563 326.125,26.7813 325.3594,26.7813 C323.3125,26.7813 322.0156,25.6875 322.0156,23.9844 L322.0156,22.8906 C322.0156,21.1094 323.2656,19.7969 325,19.7969 C325.5781,19.7969 326.1875,19.9531 326.6563,20.2031 C327.1406,20.4844 327.3125,20.7031 327.4063,21.1094 C327.4688,21.5156 327.5,21.6406 327.6406,21.7656 C327.7813,21.9063 328.0156,22.0156 328.2344,22.0156 C328.5,22.0156 328.7656,21.875 328.9375,21.6563 C329.0469,21.5 329.0781,21.3125 329.0781,20.8906 L329.0781,19.4688 C329.0781,19.0313 329.0625,18.9063 328.9688,18.75 C328.8125,18.4844 328.5313,18.3438 328.2344,18.3438 C327.9375,18.3438 327.7344,18.4375 327.5156,18.75 L327.3438,18.6719 Z " fill="#000000"/><text fill="#000000" font-family="sans-serif" font-size="14" lengthAdjust="spacing" textLength="85" x="339" y="27.8467">Mastermind</text><line style="stroke:#181818;stroke-width:0.5;" x1="311" x2="426" y1="39" y2="39"/><line style="stroke:#181818;stroke-width:0.5;" x1="311" x2="426" y1="47" y2="47"/></g><!--class Turn--><g id="elem_Turn"><rect codeLine="2" fill="#F1F1F1" height="48" id="Turn" rx="2.5" ry="2.5" style="stroke:#181818;stroke-width:0.5;" width="64" x="336.5" y="115"/><ellipse cx="351.5" cy="131" fill="#ADD1B2" rx="11" ry="11" style="stroke:#181818;stroke-width:1.0;"/><path d="M353.8438,126.6719 C352.9063,126.2344 352.3125,126.0938 351.4375,126.0938 C348.8125,126.0938 346.8125,128.1719 346.8125,130.8906 L346.8125,132.0156 C346.8125,134.5938 348.9219,136.4844 351.8125,136.4844 C353.0313,136.4844 354.1875,136.1875 354.9375,135.6406 C355.5156,135.2344 355.8438,134.7813 355.8438,134.3906 C355.8438,133.9375 355.4531,133.5469 354.9844,133.5469 C354.7656,133.5469 354.5625,133.625 354.375,133.8125 C353.9219,134.2969 353.9219,134.2969 353.7344,134.3906 C353.3125,134.6563 352.625,134.7813 351.8594,134.7813 C349.8125,134.7813 348.5156,133.6875 348.5156,131.9844 L348.5156,130.8906 C348.5156,129.1094 349.7656,127.7969 351.5,127.7969 C352.0781,127.7969 352.6875,127.9531 353.1563,128.2031 C353.6406,128.4844 353.8125,128.7031 353.9063,129.1094 C353.9688,129.5156 354,129.6406 354.1406,129.7656 C354.2813,129.9063 354.5156,130.0156 354.7344,130.0156 C355,130.0156 355.2656,129.875 355.4375,129.6563 C355.5469,129.5 355.5781,129.3125 355.5781,128.8906 L355.5781,127.4688 C355.5781,127.0313 355.5625,126.9063 355.4688,126.75 C355.3125,126.4844 355.0313,126.3438 354.7344,126.3438 C354.4375,126.3438 354.2344,126.4375 354.0156,126.75 L353.8438,126.6719 Z " fill="#000000"/><text fill="#000000" font-family="sans-serif" font-size="14" lengthAdjust="spacing" textLength="32" x="365.5" y="135.8467">Turn</text><line style="stroke:#181818;stroke-width:0.5;" x1="337.5" x2="399.5" y1="147" y2="147"/><line style="stroke:#181818;stroke-width:0.5;" x1="337.5" x2="399.5" y1="155" y2="155"/></g><!--class Board--><g id="elem_Board"><rect codeLine="3" fill="#F1F1F1" height="48" id="Board" rx="2.5" ry="2.5" style="stroke:#181818;stroke-width:0.5;" width="74" x="416.5" y="331"/><ellipse cx="431.5" cy="347" fill="#ADD1B2" rx="11" ry="11" style="stroke:#181818;stroke-width:1.0;"/><path d="M433.8438,342.6719 C432.9063,342.2344 432.3125,342.0938 431.4375,342.0938 C428.8125,342.0938 426.8125,344.1719 426.8125,346.8906 L426.8125,348.0156 C426.8125,350.5938 428.9219,352.4844 431.8125,352.4844 C433.0313,352.4844 434.1875,352.1875 434.9375,351.6406 C435.5156,351.2344 435.8438,350.7813 435.8438,350.3906 C435.8438,349.9375 435.4531,349.5469 434.9844,349.5469 C434.7656,349.5469 434.5625,349.625 434.375,349.8125 C433.9219,350.2969 433.9219,350.2969 433.7344,350.3906 C433.3125,350.6563 432.625,350.7813 431.8594,350.7813 C429.8125,350.7813 428.5156,349.6875 428.5156,347.9844 L428.5156,346.8906 C428.5156,345.1094 429.7656,343.7969 431.5,343.7969 C432.0781,343.7969 432.6875,343.9531 433.1563,344.2031 C433.6406,344.4844 433.8125,344.7031 433.9063,345.1094 C433.9688,345.5156 434,345.6406 434.1406,345.7656 C434.2813,345.9063 434.5156,346.0156 434.7344,346.0156 C435,346.0156 435.2656,345.875 435.4375,345.6563 C435.5469,345.5 435.5781,345.3125 435.5781,344.8906 L435.5781,343.4688 C435.5781,343.0313 435.5625,342.9063 435.4688,342.75 C435.3125,342.4844 435.0313,342.3438 434.7344,342.3438 C434.4375,342.3438 434.2344,342.4375 434.0156,342.75 L433.8438,342.6719 Z " fill="#000000"/><text fill="#000000" font-family="sans-serif" font-size="14" lengthAdjust="spacing" textLength="42" x="445.5" y="351.8467">Board</text><line style="stroke:#181818;stroke-width:0.5;" x1="417.5" x2="489.5" y1="363" y2="363"/><line style="stroke:#181818;stroke-width:0.5;" x1="417.5" x2="489.5" y1="371" y2="371"/></g><!--class Player--><g id="elem_Player"><rect codeLine="4" fill="#F1F1F1" height="48" id="Player" rx="2.5" ry="2.5" style="stroke:#181818;stroke-width:0.5;" width="76" x="300.5" y="223"/><ellipse cx="315.5" cy="239" fill="#ADD1B2" rx="11" ry="11" style="stroke:#181818;stroke-width:1.0;"/><path d="M317.8438,234.6719 C316.9063,234.2344 316.3125,234.0938 315.4375,234.0938 C312.8125,234.0938 310.8125,236.1719 310.8125,238.8906 L310.8125,240.0156 C310.8125,242.5938 312.9219,244.4844 315.8125,244.4844 C317.0313,244.4844 318.1875,244.1875 318.9375,243.6406 C319.5156,243.2344 319.8438,242.7813 319.8438,242.3906 C319.8438,241.9375 319.4531,241.5469 318.9844,241.5469 C318.7656,241.5469 318.5625,241.625 318.375,241.8125 C317.9219,242.2969 317.9219,242.2969 317.7344,242.3906 C317.3125,242.6563 316.625,242.7813 315.8594,242.7813 C313.8125,242.7813 312.5156,241.6875 312.5156,239.9844 L312.5156,238.8906 C312.5156,237.1094 313.7656,235.7969 315.5,235.7969 C316.0781,235.7969 316.6875,235.9531 317.1563,236.2031 C317.6406,236.4844 317.8125,236.7031 317.9063,237.1094 C317.9688,237.5156 318,237.6406 318.1406,237.7656 C318.2813,237.9063 318.5156,238.0156 318.7344,238.0156 C319,238.0156 319.2656,237.875 319.4375,237.6563 C319.5469,237.5 319.5781,237.3125 319.5781,236.8906 L319.5781,235.4688 C319.5781,235.0313 319.5625,234.9063 319.4688,234.75 C319.3125,234.4844 319.0313,234.3438 318.7344,234.3438 C318.4375,234.3438 318.2344,234.4375 318.0156,234.75 L317.8438,234.6719 Z " fill="#000000"/><text fill="#000000" font-family="sans-serif" font-size="14" lengthAdjust="spacing" textLength="44" x="329.5" y="243.8467">Player</text><line style="stroke:#181818;stroke-width:0.5;" x1="301.5" x2="375.5" y1="255" y2="255"/><line style="stroke:#181818;stroke-width:0.5;" x1="301.5" x2="375.5" y1="263" y2="263"/></g><!--class MakerPlayer--><g id="elem_MakerPlayer"><rect codeLine="5" fill="#F1F1F1" height="48" id="MakerPlayer" rx="2.5" ry="2.5" style="stroke:#181818;stroke-width:0.5;" width="120" x="525.5" y="331"/><ellipse cx="540.5" cy="347" fill="#ADD1B2" rx="11" ry="11" style="stroke:#181818;stroke-width:1.0;"/><path d="M542.8438,342.6719 C541.9063,342.2344 541.3125,342.0938 540.4375,342.0938 C537.8125,342.0938 535.8125,344.1719 535.8125,346.8906 L535.8125,348.0156 C535.8125,350.5938 537.9219,352.4844 540.8125,352.4844 C542.0313,352.4844 543.1875,352.1875 543.9375,351.6406 C544.5156,351.2344 544.8438,350.7813 544.8438,350.3906 C544.8438,349.9375 544.4531,349.5469 543.9844,349.5469 C543.7656,349.5469 543.5625,349.625 543.375,349.8125 C542.9219,350.2969 542.9219,350.2969 542.7344,350.3906 C542.3125,350.6563 541.625,350.7813 540.8594,350.7813 C538.8125,350.7813 537.5156,349.6875 537.5156,347.9844 L537.5156,346.8906 C537.5156,345.1094 538.7656,343.7969 540.5,343.7969 C541.0781,343.7969 541.6875,343.9531 542.1563,344.2031 C542.6406,344.4844 542.8125,344.7031 542.9063,345.1094 C542.9688,345.5156 543,345.6406 543.1406,345.7656 C543.2813,345.9063 543.5156,346.0156 543.7344,346.0156 C544,346.0156 544.2656,345.875 544.4375,345.6563 C544.5469,345.5 544.5781,345.3125 544.5781,344.8906 L544.5781,343.4688 C544.5781,343.0313 544.5625,342.9063 544.4688,342.75 C544.3125,342.4844 544.0313,342.3438 543.7344,342.3438 C543.4375,342.3438 543.2344,342.4375 543.0156,342.75 L542.8438,342.6719 Z " fill="#000000"/><text fill="#000000" font-family="sans-serif" font-size="14" lengthAdjust="spacing" textLength="88" x="554.5" y="351.8467">MakerPlayer</text><line style="stroke:#181818;stroke-width:0.5;" x1="526.5" x2="644.5" y1="363" y2="363"/><line style="stroke:#181818;stroke-width:0.5;" x1="526.5" x2="644.5" y1="371" y2="371"/></g><!--class BreakerPlayer--><g id="elem_BreakerPlayer"><rect codeLine="6" fill="#F1F1F1" height="48" id="BreakerPlayer" rx="2.5" ry="2.5" style="stroke:#181818;stroke-width:0.5;" width="133" x="248" y="331"/><ellipse cx="263" cy="347" fill="#ADD1B2" rx="11" ry="11" style="stroke:#181818;stroke-width:1.0;"/><path d="M265.3438,342.6719 C264.4063,342.2344 263.8125,342.0938 262.9375,342.0938 C260.3125,342.0938 258.3125,344.1719 258.3125,346.8906 L258.3125,348.0156 C258.3125,350.5938 260.4219,352.4844 263.3125,352.4844 C264.5313,352.4844 265.6875,352.1875 266.4375,351.6406 C267.0156,351.2344 267.3438,350.7813 267.3438,350.3906 C267.3438,349.9375 266.9531,349.5469 266.4844,349.5469 C266.2656,349.5469 266.0625,349.625 265.875,349.8125 C265.4219,350.2969 265.4219,350.2969 265.2344,350.3906 C264.8125,350.6563 264.125,350.7813 263.3594,350.7813 C261.3125,350.7813 260.0156,349.6875 260.0156,347.9844 L260.0156,346.8906 C260.0156,345.1094 261.2656,343.7969 263,343.7969 C263.5781,343.7969 264.1875,343.9531 264.6563,344.2031 C265.1406,344.4844 265.3125,344.7031 265.4063,345.1094 C265.4688,345.5156 265.5,345.6406 265.6406,345.7656 C265.7813,345.9063 266.0156,346.0156 266.2344,346.0156 C266.5,346.0156 266.7656,345.875 266.9375,345.6563 C267.0469,345.5 267.0781,345.3125 267.0781,344.8906 L267.0781,343.4688 C267.0781,343.0313 267.0625,342.9063 266.9688,342.75 C266.8125,342.4844 266.5313,342.3438 266.2344,342.3438 C265.9375,342.3438 265.7344,342.4375 265.5156,342.75 L265.3438,342.6719 Z " fill="#000000"/><text fill="#000000" font-family="sans-serif" font-size="14" lengthAdjust="spacing" textLength="101" x="277" y="351.8467">BreakerPlayer</text><line style="stroke:#181818;stroke-width:0.5;" x1="249" x2="380" y1="363" y2="363"/><line style="stroke:#181818;stroke-width:0.5;" x1="249" x2="380" y1="371" y2="371"/></g><!--class Combination--><g id="elem_Combination"><rect codeLine="7" fill="#F1F1F1" height="48" id="Combination" rx="2.5" ry="2.5" style="stroke:#181818;stroke-width:0.5;" width="125" x="88" y="331"/><ellipse cx="103" cy="347" fill="#ADD1B2" rx="11" ry="11" style="stroke:#181818;stroke-width:1.0;"/><path d="M105.3438,342.6719 C104.4063,342.2344 103.8125,342.0938 102.9375,342.0938 C100.3125,342.0938 98.3125,344.1719 98.3125,346.8906 L98.3125,348.0156 C98.3125,350.5938 100.4219,352.4844 103.3125,352.4844 C104.5313,352.4844 105.6875,352.1875 106.4375,351.6406 C107.0156,351.2344 107.3438,350.7813 107.3438,350.3906 C107.3438,349.9375 106.9531,349.5469 106.4844,349.5469 C106.2656,349.5469 106.0625,349.625 105.875,349.8125 C105.4219,350.2969 105.4219,350.2969 105.2344,350.3906 C104.8125,350.6563 104.125,350.7813 103.3594,350.7813 C101.3125,350.7813 100.0156,349.6875 100.0156,347.9844 L100.0156,346.8906 C100.0156,345.1094 101.2656,343.7969 103,343.7969 C103.5781,343.7969 104.1875,343.9531 104.6563,344.2031 C105.1406,344.4844 105.3125,344.7031 105.4063,345.1094 C105.4688,345.5156 105.5,345.6406 105.6406,345.7656 C105.7813,345.9063 106.0156,346.0156 106.2344,346.0156 C106.5,346.0156 106.7656,345.875 106.9375,345.6563 C107.0469,345.5 107.0781,345.3125 107.0781,344.8906 L107.0781,343.4688 C107.0781,343.0313 107.0625,342.9063 106.9688,342.75 C106.8125,342.4844 106.5313,342.3438 106.2344,342.3438 C105.9375,342.3438 105.7344,342.4375 105.5156,342.75 L105.3438,342.6719 Z " fill="#000000"/><text fill="#000000" font-family="sans-serif" font-size="14" lengthAdjust="spacing" textLength="93" x="117" y="351.8467">Combination</text><line style="stroke:#181818;stroke-width:0.5;" x1="89" x2="212" y1="363" y2="363"/><line style="stroke:#181818;stroke-width:0.5;" x1="89" x2="212" y1="371" y2="371"/></g><!--class ProposedCombination--><g id="elem_ProposedCombination"><rect codeLine="8" fill="#F1F1F1" height="48" id="ProposedCombination" rx="2.5" ry="2.5" style="stroke:#181818;stroke-width:0.5;" width="193" x="139" y="488"/><ellipse cx="154" cy="504" fill="#ADD1B2" rx="11" ry="11" style="stroke:#181818;stroke-width:1.0;"/><path d="M156.3438,499.6719 C155.4063,499.2344 154.8125,499.0938 153.9375,499.0938 C151.3125,499.0938 149.3125,501.1719 149.3125,503.8906 L149.3125,505.0156 C149.3125,507.5938 151.4219,509.4844 154.3125,509.4844 C155.5313,509.4844 156.6875,509.1875 157.4375,508.6406 C158.0156,508.2344 158.3438,507.7813 158.3438,507.3906 C158.3438,506.9375 157.9531,506.5469 157.4844,506.5469 C157.2656,506.5469 157.0625,506.625 156.875,506.8125 C156.4219,507.2969 156.4219,507.2969 156.2344,507.3906 C155.8125,507.6563 155.125,507.7813 154.3594,507.7813 C152.3125,507.7813 151.0156,506.6875 151.0156,504.9844 L151.0156,503.8906 C151.0156,502.1094 152.2656,500.7969 154,500.7969 C154.5781,500.7969 155.1875,500.9531 155.6563,501.2031 C156.1406,501.4844 156.3125,501.7031 156.4063,502.1094 C156.4688,502.5156 156.5,502.6406 156.6406,502.7656 C156.7813,502.9063 157.0156,503.0156 157.2344,503.0156 C157.5,503.0156 157.7656,502.875 157.9375,502.6563 C158.0469,502.5 158.0781,502.3125 158.0781,501.8906 L158.0781,500.4688 C158.0781,500.0313 158.0625,499.9063 157.9688,499.75 C157.8125,499.4844 157.5313,499.3438 157.2344,499.3438 C156.9375,499.3438 156.7344,499.4375 156.5156,499.75 L156.3438,499.6719 Z " fill="#000000"/><text fill="#000000" font-family="sans-serif" font-size="14" lengthAdjust="spacing" textLength="161" x="168" y="508.8467">ProposedCombination</text><line style="stroke:#181818;stroke-width:0.5;" x1="140" x2="331" y1="520" y2="520"/><line style="stroke:#181818;stroke-width:0.5;" x1="140" x2="331" y1="528" y2="528"/></g><!--class SecretCombination--><g id="elem_SecretCombination"><rect codeLine="9" fill="#F1F1F1" height="48" id="SecretCombination" rx="2.5" ry="2.5" style="stroke:#181818;stroke-width:0.5;" width="173" x="367" y="488"/><ellipse cx="382" cy="504" fill="#ADD1B2" rx="11" ry="11" style="stroke:#181818;stroke-width:1.0;"/><path d="M384.3438,499.6719 C383.4063,499.2344 382.8125,499.0938 381.9375,499.0938 C379.3125,499.0938 377.3125,501.1719 377.3125,503.8906 L377.3125,505.0156 C377.3125,507.5938 379.4219,509.4844 382.3125,509.4844 C383.5313,509.4844 384.6875,509.1875 385.4375,508.6406 C386.0156,508.2344 386.3438,507.7813 386.3438,507.3906 C386.3438,506.9375 385.9531,506.5469 385.4844,506.5469 C385.2656,506.5469 385.0625,506.625 384.875,506.8125 C384.4219,507.2969 384.4219,507.2969 384.2344,507.3906 C383.8125,507.6563 383.125,507.7813 382.3594,507.7813 C380.3125,507.7813 379.0156,506.6875 379.0156,504.9844 L379.0156,503.8906 C379.0156,502.1094 380.2656,500.7969 382,500.7969 C382.5781,500.7969 383.1875,500.9531 383.6563,501.2031 C384.1406,501.4844 384.3125,501.7031 384.4063,502.1094 C384.4688,502.5156 384.5,502.6406 384.6406,502.7656 C384.7813,502.9063 385.0156,503.0156 385.2344,503.0156 C385.5,503.0156 385.7656,502.875 385.9375,502.6563 C386.0469,502.5 386.0781,502.3125 386.0781,501.8906 L386.0781,500.4688 C386.0781,500.0313 386.0625,499.9063 385.9688,499.75 C385.8125,499.4844 385.5313,499.3438 385.2344,499.3438 C384.9375,499.3438 384.7344,499.4375 384.5156,499.75 L384.3438,499.6719 Z " fill="#000000"/><text fill="#000000" font-family="sans-serif" font-size="14" lengthAdjust="spacing" textLength="141" x="396" y="508.8467">SecretCombination</text><line style="stroke:#181818;stroke-width:0.5;" x1="368" x2="539" y1="520" y2="520"/><line style="stroke:#181818;stroke-width:0.5;" x1="368" x2="539" y1="528" y2="528"/></g><!--class Result--><g id="elem_Result"><rect codeLine="10" fill="#F1F1F1" height="48" id="Result" rx="2.5" ry="2.5" style="stroke:#181818;stroke-width:0.5;" width="77" x="575" y="488"/><ellipse cx="590" cy="504" fill="#ADD1B2" rx="11" ry="11" style="stroke:#181818;stroke-width:1.0;"/><path d="M592.3438,499.6719 C591.4063,499.2344 590.8125,499.0938 589.9375,499.0938 C587.3125,499.0938 585.3125,501.1719 585.3125,503.8906 L585.3125,505.0156 C585.3125,507.5938 587.4219,509.4844 590.3125,509.4844 C591.5313,509.4844 592.6875,509.1875 593.4375,508.6406 C594.0156,508.2344 594.3438,507.7813 594.3438,507.3906 C594.3438,506.9375 593.9531,506.5469 593.4844,506.5469 C593.2656,506.5469 593.0625,506.625 592.875,506.8125 C592.4219,507.2969 592.4219,507.2969 592.2344,507.3906 C591.8125,507.6563 591.125,507.7813 590.3594,507.7813 C588.3125,507.7813 587.0156,506.6875 587.0156,504.9844 L587.0156,503.8906 C587.0156,502.1094 588.2656,500.7969 590,500.7969 C590.5781,500.7969 591.1875,500.9531 591.6563,501.2031 C592.1406,501.4844 592.3125,501.7031 592.4063,502.1094 C592.4688,502.5156 592.5,502.6406 592.6406,502.7656 C592.7813,502.9063 593.0156,503.0156 593.2344,503.0156 C593.5,503.0156 593.7656,502.875 593.9375,502.6563 C594.0469,502.5 594.0781,502.3125 594.0781,501.8906 L594.0781,500.4688 C594.0781,500.0313 594.0625,499.9063 593.9688,499.75 C593.8125,499.4844 593.5313,499.3438 593.2344,499.3438 C592.9375,499.3438 592.7344,499.4375 592.5156,499.75 L592.3438,499.6719 Z " fill="#000000"/><text fill="#000000" font-family="sans-serif" font-size="14" lengthAdjust="spacing" textLength="45" x="604" y="508.8467">Result</text><line style="stroke:#181818;stroke-width:0.5;" x1="576" x2="651" y1="520" y2="520"/><line style="stroke:#181818;stroke-width:0.5;" x1="576" x2="651" y1="528" y2="528"/></g><!--class WinnerResult--><g id="elem_WinnerResult"><rect codeLine="11" fill="#F1F1F1" height="48" id="WinnerResult" rx="2.5" ry="2.5" style="stroke:#181818;stroke-width:0.5;" width="128" x="478.5" y="645"/><ellipse cx="493.5" cy="661" fill="#ADD1B2" rx="11" ry="11" style="stroke:#181818;stroke-width:1.0;"/><path d="M495.8438,656.6719 C494.9063,656.2344 494.3125,656.0938 493.4375,656.0938 C490.8125,656.0938 488.8125,658.1719 488.8125,660.8906 L488.8125,662.0156 C488.8125,664.5938 490.9219,666.4844 493.8125,666.4844 C495.0313,666.4844 496.1875,666.1875 496.9375,665.6406 C497.5156,665.2344 497.8438,664.7813 497.8438,664.3906 C497.8438,663.9375 497.4531,663.5469 496.9844,663.5469 C496.7656,663.5469 496.5625,663.625 496.375,663.8125 C495.9219,664.2969 495.9219,664.2969 495.7344,664.3906 C495.3125,664.6563 494.625,664.7813 493.8594,664.7813 C491.8125,664.7813 490.5156,663.6875 490.5156,661.9844 L490.5156,660.8906 C490.5156,659.1094 491.7656,657.7969 493.5,657.7969 C494.0781,657.7969 494.6875,657.9531 495.1563,658.2031 C495.6406,658.4844 495.8125,658.7031 495.9063,659.1094 C495.9688,659.5156 496,659.6406 496.1406,659.7656 C496.2813,659.9063 496.5156,660.0156 496.7344,660.0156 C497,660.0156 497.2656,659.875 497.4375,659.6563 C497.5469,659.5 497.5781,659.3125 497.5781,658.8906 L497.5781,657.4688 C497.5781,657.0313 497.5625,656.9063 497.4688,656.75 C497.3125,656.4844 497.0313,656.3438 496.7344,656.3438 C496.4375,656.3438 496.2344,656.4375 496.0156,656.75 L495.8438,656.6719 Z " fill="#000000"/><text fill="#000000" font-family="sans-serif" font-size="14" lengthAdjust="spacing" textLength="96" x="507.5" y="665.8467">WinnerResult</text><line style="stroke:#181818;stroke-width:0.5;" x1="479.5" x2="605.5" y1="677" y2="677"/><line style="stroke:#181818;stroke-width:0.5;" x1="479.5" x2="605.5" y1="685" y2="685"/></g><!--class Success--><g id="elem_Success"><rect codeLine="12" fill="#F1F1F1" height="48" id="Success" rx="2.5" ry="2.5" style="stroke:#181818;stroke-width:0.5;" width="88" x="641.5" y="645"/><ellipse cx="656.5" cy="661" fill="#ADD1B2" rx="11" ry="11" style="stroke:#181818;stroke-width:1.0;"/><path d="M658.8438,656.6719 C657.9063,656.2344 657.3125,656.0938 656.4375,656.0938 C653.8125,656.0938 651.8125,658.1719 651.8125,660.8906 L651.8125,662.0156 C651.8125,664.5938 653.9219,666.4844 656.8125,666.4844 C658.0313,666.4844 659.1875,666.1875 659.9375,665.6406 C660.5156,665.2344 660.8438,664.7813 660.8438,664.3906 C660.8438,663.9375 660.4531,663.5469 659.9844,663.5469 C659.7656,663.5469 659.5625,663.625 659.375,663.8125 C658.9219,664.2969 658.9219,664.2969 658.7344,664.3906 C658.3125,664.6563 657.625,664.7813 656.8594,664.7813 C654.8125,664.7813 653.5156,663.6875 653.5156,661.9844 L653.5156,660.8906 C653.5156,659.1094 654.7656,657.7969 656.5,657.7969 C657.0781,657.7969 657.6875,657.9531 658.1563,658.2031 C658.6406,658.4844 658.8125,658.7031 658.9063,659.1094 C658.9688,659.5156 659,659.6406 659.1406,659.7656 C659.2813,659.9063 659.5156,660.0156 659.7344,660.0156 C660,660.0156 660.2656,659.875 660.4375,659.6563 C660.5469,659.5 660.5781,659.3125 660.5781,658.8906 L660.5781,657.4688 C660.5781,657.0313 660.5625,656.9063 660.4688,656.75 C660.3125,656.4844 660.0313,656.3438 659.7344,656.3438 C659.4375,656.3438 659.2344,656.4375 659.0156,656.75 L658.8438,656.6719 Z " fill="#000000"/><text fill="#000000" font-family="sans-serif" font-size="14" lengthAdjust="spacing" textLength="56" x="670.5" y="665.8467">Success</text><line style="stroke:#181818;stroke-width:0.5;" x1="642.5" x2="728.5" y1="677" y2="677"/><line style="stroke:#181818;stroke-width:0.5;" x1="642.5" x2="728.5" y1="685" y2="685"/></g><!--class White--><g id="elem_White"><rect codeLine="13" fill="#F1F1F1" height="48" id="White" rx="2.5" ry="2.5" style="stroke:#181818;stroke-width:0.5;" width="75" x="648" y="753"/><ellipse cx="663" cy="769" fill="#ADD1B2" rx="11" ry="11" style="stroke:#181818;stroke-width:1.0;"/><path d="M665.3438,764.6719 C664.4063,764.2344 663.8125,764.0938 662.9375,764.0938 C660.3125,764.0938 658.3125,766.1719 658.3125,768.8906 L658.3125,770.0156 C658.3125,772.5938 660.4219,774.4844 663.3125,774.4844 C664.5313,774.4844 665.6875,774.1875 666.4375,773.6406 C667.0156,773.2344 667.3438,772.7813 667.3438,772.3906 C667.3438,771.9375 666.9531,771.5469 666.4844,771.5469 C666.2656,771.5469 666.0625,771.625 665.875,771.8125 C665.4219,772.2969 665.4219,772.2969 665.2344,772.3906 C664.8125,772.6563 664.125,772.7813 663.3594,772.7813 C661.3125,772.7813 660.0156,771.6875 660.0156,769.9844 L660.0156,768.8906 C660.0156,767.1094 661.2656,765.7969 663,765.7969 C663.5781,765.7969 664.1875,765.9531 664.6563,766.2031 C665.1406,766.4844 665.3125,766.7031 665.4063,767.1094 C665.4688,767.5156 665.5,767.6406 665.6406,767.7656 C665.7813,767.9063 666.0156,768.0156 666.2344,768.0156 C666.5,768.0156 666.7656,767.875 666.9375,767.6563 C667.0469,767.5 667.0781,767.3125 667.0781,766.8906 L667.0781,765.4688 C667.0781,765.0313 667.0625,764.9063 666.9688,764.75 C666.8125,764.4844 666.5313,764.3438 666.2344,764.3438 C665.9375,764.3438 665.7344,764.4375 665.5156,764.75 L665.3438,764.6719 Z " fill="#000000"/><text fill="#000000" font-family="sans-serif" font-size="14" lengthAdjust="spacing" textLength="43" x="677" y="773.8467">White</text><line style="stroke:#181818;stroke-width:0.5;" x1="649" x2="722" y1="785" y2="785"/><line style="stroke:#181818;stroke-width:0.5;" x1="649" x2="722" y1="793" y2="793"/></g><!--class Black--><g id="elem_Black"><rect codeLine="14" fill="#F1F1F1" height="48" id="Black" rx="2.5" ry="2.5" style="stroke:#181818;stroke-width:0.5;" width="71" x="525" y="753"/><ellipse cx="540" cy="769" fill="#ADD1B2" rx="11" ry="11" style="stroke:#181818;stroke-width:1.0;"/><path d="M542.3438,764.6719 C541.4063,764.2344 540.8125,764.0938 539.9375,764.0938 C537.3125,764.0938 535.3125,766.1719 535.3125,768.8906 L535.3125,770.0156 C535.3125,772.5938 537.4219,774.4844 540.3125,774.4844 C541.5313,774.4844 542.6875,774.1875 543.4375,773.6406 C544.0156,773.2344 544.3438,772.7813 544.3438,772.3906 C544.3438,771.9375 543.9531,771.5469 543.4844,771.5469 C543.2656,771.5469 543.0625,771.625 542.875,771.8125 C542.4219,772.2969 542.4219,772.2969 542.2344,772.3906 C541.8125,772.6563 541.125,772.7813 540.3594,772.7813 C538.3125,772.7813 537.0156,771.6875 537.0156,769.9844 L537.0156,768.8906 C537.0156,767.1094 538.2656,765.7969 540,765.7969 C540.5781,765.7969 541.1875,765.9531 541.6563,766.2031 C542.1406,766.4844 542.3125,766.7031 542.4063,767.1094 C542.4688,767.5156 542.5,767.6406 542.6406,767.7656 C542.7813,767.9063 543.0156,768.0156 543.2344,768.0156 C543.5,768.0156 543.7656,767.875 543.9375,767.6563 C544.0469,767.5 544.0781,767.3125 544.0781,766.8906 L544.0781,765.4688 C544.0781,765.0313 544.0625,764.9063 543.9688,764.75 C543.8125,764.4844 543.5313,764.3438 543.2344,764.3438 C542.9375,764.3438 542.7344,764.4375 542.5156,764.75 L542.3438,764.6719 Z " fill="#000000"/><text fill="#000000" font-family="sans-serif" font-size="14" lengthAdjust="spacing" textLength="39" x="554" y="773.8467">Black</text><line style="stroke:#181818;stroke-width:0.5;" x1="526" x2="595" y1="785" y2="785"/><line style="stroke:#181818;stroke-width:0.5;" x1="526" x2="595" y1="793" y2="793"/></g><!--class Color--><g id="elem_Color"><rect codeLine="15" fill="#F1F1F1" height="145.7813" id="Color" rx="2.5" ry="2.5" style="stroke:#181818;stroke-width:0.5;" width="97" x="7" y="439"/><ellipse cx="34.15" cy="455" fill="#EB937F" rx="11" ry="11" style="stroke:#181818;stroke-width:1.0;"/><path d="M32.9469,455.875 L34.4,455.875 L34.4,455.9844 C34.4,456.3906 34.4313,456.5469 34.5094,456.7031 C34.6656,456.9531 34.9469,457.1094 35.2438,457.1094 C35.4938,457.1094 35.7594,456.9688 35.9156,456.75 C36.0406,456.5938 36.0719,456.4375 36.0719,455.9844 L36.0719,454.0625 C36.0719,453.9063 36.0719,453.8594 36.0563,453.7031 C35.9938,453.2344 35.6813,452.9219 35.2281,452.9219 C34.9781,452.9219 34.7125,453.0625 34.5406,453.2813 C34.4313,453.4531 34.4,453.6094 34.4,454.0625 L34.4,454.1875 L32.9469,454.1875 L32.9469,451.7813 L36.9313,451.7813 L36.9313,452.6406 C36.9313,453.0469 36.9625,453.2188 37.0406,453.375 C37.2125,453.625 37.4938,453.7813 37.775,453.7813 C38.0406,453.7813 38.3063,453.6406 38.4781,453.4219 C38.5875,453.25 38.6188,453.1094 38.6188,452.6406 L38.6188,450.0938 L30.9938,450.0938 C30.5563,450.0938 30.4313,450.1094 30.275,450.2031 C30.025,450.3594 29.8688,450.6563 29.8688,450.9375 C29.8688,451.2188 30.0094,451.4688 30.2281,451.6406 C30.3844,451.75 30.5719,451.7813 30.9938,451.7813 L31.2438,451.7813 L31.2438,458.2969 L30.9938,458.2969 C30.5875,458.2969 30.4313,458.3125 30.275,458.4219 C30.025,458.5938 29.8688,458.8594 29.8688,459.1563 C29.8688,459.4219 30.0094,459.6719 30.2281,459.8281 C30.3688,459.9531 30.6031,460 30.9938,460 L38.9938,460 L38.9938,457.4219 C38.9938,456.9844 38.9625,456.8438 38.8844,456.6875 C38.7125,456.4375 38.4313,456.2813 38.15,456.2813 C37.8844,456.2813 37.6188,456.3906 37.4469,456.6406 C37.3375,456.7969 37.3063,456.9375 37.3063,457.4219 L37.3063,458.2969 L32.9469,458.2969 L32.9469,455.875 Z " fill="#000000"/><text fill="#000000" font-family="sans-serif" font-size="14" lengthAdjust="spacing" textLength="38" x="50.85" y="459.8467">Color</text><line style="stroke:#181818;stroke-width:0.5;" x1="8" x2="103" y1="471" y2="471"/><rect fill="none" height="6" style="stroke:#C82930;stroke-width:1.0;" width="6" x="15" y="481.6484"/><text fill="#000000" font-family="sans-serif" font-size="14" lengthAdjust="spacing" textLength="30" x="27" y="487.9951">RED</text><rect fill="none" height="6" style="stroke:#C82930;stroke-width:1.0;" width="6" x="15" y="497.9453"/><text fill="#000000" font-family="sans-serif" font-size="14" lengthAdjust="spacing" textLength="49" x="27" y="504.292">GREEN</text><rect fill="none" height="6" style="stroke:#C82930;stroke-width:1.0;" width="6" x="15" y="514.2422"/><text fill="#000000" font-family="sans-serif" font-size="14" lengthAdjust="spacing" textLength="36" x="27" y="520.5889">BLUE</text><rect fill="none" height="6" style="stroke:#C82930;stroke-width:1.0;" width="6" x="15" y="530.5391"/><text fill="#000000" font-family="sans-serif" font-size="14" lengthAdjust="spacing" textLength="59" x="27" y="536.8857">YELLOW</text><rect fill="none" height="6" style="stroke:#C82930;stroke-width:1.0;" width="6" x="15" y="546.8359"/><text fill="#000000" font-family="sans-serif" font-size="14" lengthAdjust="spacing" textLength="39" x="27" y="553.1826">CYAN</text><rect fill="none" height="6" style="stroke:#C82930;stroke-width:1.0;" width="6" x="15" y="563.1328"/><text fill="#000000" font-family="sans-serif" font-size="14" lengthAdjust="spacing" textLength="71" x="27" y="569.4795">MAGENTA</text><line style="stroke:#181818;stroke-width:0.5;" x1="8" x2="103" y1="576.7813" y2="576.7813"/></g><!--link Mastermind to Player--><g id="link_Mastermind_Player"><path codeLine="24" d="M342.8153,64.7847 C331.2913,80.6107 324.627,92.957 318.5,115 C308.211,152.018 317.8587,190.8285 327.1997,217.2745 " fill="none" id="Mastermind-Player" style="stroke:#181818;stroke-width:1.0;"/><polygon fill="#181818" points="349.879,55.084,343.1136,57.5798,342.8153,64.7847,349.5807,62.2889,349.879,55.084" style="stroke:#181818;stroke-width:1.0;"/><polygon fill="#181818" points="329.198,222.932,329.9722,213.1136,327.5328,218.2174,322.4289,215.778,329.198,222.932" style="stroke:#181818;stroke-width:1.0;"/><text fill="#000000" font-family="sans-serif" font-size="13" lengthAdjust="spacing" textLength="8" x="317.7894" y="211.9266">2</text></g><!--link Mastermind to Board--><g id="link_Mastermind_Board"><path codeLine="25" d="M392.1895,65.0523 C403.0755,81.0723 409.825,93.398 417.5,115 C444.474,190.916 451.0032,281.3996 452.6992,324.8946 " fill="none" id="Mastermind-Board" style="stroke:#181818;stroke-width:1.0;"/><polygon fill="#181818" points="385.445,55.127,385.5088,62.3378,392.1895,65.0523,392.1257,57.8415,385.445,55.127" style="stroke:#181818;stroke-width:1.0;"/><polygon fill="#181818" points="452.933,330.89,456.5793,321.741,452.7382,325.8938,448.5854,322.0527,452.933,330.89" style="stroke:#181818;stroke-width:1.0;"/></g><!--link Mastermind to Turn--><g id="link_Mastermind_Turn"><path codeLine="26" d="M368.5,67 C368.5,84.658 368.5,90.941 368.5,108.678 " fill="none" id="Mastermind-Turn" style="stroke:#181818;stroke-width:1.0;"/><polygon fill="#181818" points="368.5,55,364.5,61,368.5,67,372.5,61,368.5,55" style="stroke:#181818;stroke-width:1.0;"/><polygon fill="#181818" points="368.5,114.678,372.5,105.678,368.5,109.678,364.5,105.678,368.5,114.678" style="stroke:#181818;stroke-width:1.0;"/></g><!--link Turn to Player--><g id="link_Turn_Player"><path codeLine="27" d="M361.99,163 C356.993,180.658 351.7553,199.1679 346.7343,216.9049 " fill="none" id="Turn-to-Player" style="stroke:#181818;stroke-width:1.0;"/><polygon fill="#181818" points="345.1,222.678,351.4002,215.1078,346.4619,217.867,343.7026,212.9288,345.1,222.678" style="stroke:#181818;stroke-width:1.0;"/><text fill="#000000" font-family="sans-serif" font-size="13" lengthAdjust="spacing" textLength="8" x="337.7338" y="212.0045">2</text></g><!--link Board to SecretCombination--><g id="link_Board_SecretCombination"><path codeLine="28" d="M453.5,391.205 C453.5,420.51 453.5,452.63 453.5,481.89 " fill="none" id="Board-SecretCombination" style="stroke:#181818;stroke-width:1.0;"/><polygon fill="#181818" points="453.5,379.205,449.5,385.205,453.5,391.205,457.5,385.205,453.5,379.205" style="stroke:#181818;stroke-width:1.0;"/><polygon fill="#181818" points="453.5,487.89,457.5,478.89,453.5,482.89,449.5,478.89,453.5,487.89" style="stroke:#181818;stroke-width:1.0;"/></g><!--link Board to ProposedCombination--><g id="link_Board_ProposedCombination"><path codeLine="29" d="M411.0831,386.1586 C369.8671,415.4636 314.046,455.1532 272.893,484.4132 " fill="none" id="Board-ProposedCombination" style="stroke:#181818;stroke-width:1.0;"/><polygon fill="none" points="420.863,379.205,413.6552,379.4218,411.0831,386.1586,418.2909,385.9418,420.863,379.205" style="stroke:#181818;stroke-width:1.0;"/><polygon fill="#181818" points="268.003,487.89,277.6558,485.9348,272.078,484.9927,273.0201,479.4148,268.003,487.89" style="stroke:#181818;stroke-width:1.0;"/><text fill="#000000" font-family="sans-serif" font-size="13" lengthAdjust="spacing" textLength="32" x="240.2319" y="476.8738">0..10</text></g><!--link Board to Result--><g id="link_Board_Result"><path codeLine="30" d="M496.2102,386.3487 C517.5222,402.0637 535.587,416.811 557.5,439 C572.411,454.098 583.5517,468.247 594.1227,482.945 " fill="none" id="Board-Result" style="stroke:#181818;stroke-width:1.0;"/><polygon fill="none" points="486.552,379.227,489.0072,386.0073,496.2102,386.3487,493.755,379.5685,486.552,379.227" style="stroke:#181818;stroke-width:1.0;"/><polygon fill="#181818" points="597.626,487.816,595.6184,478.1739,594.7066,483.7568,589.1237,482.845,597.626,487.816" style="stroke:#181818;stroke-width:1.0;"/><text fill="#000000" font-family="sans-serif" font-size="13" lengthAdjust="spacing" textLength="32" x="557.4583" y="476.7809">0..10</text></g><!--reverse link Success to Black--><g id="link_Success_Black"><path codeLine="31" d="M644.6487,704.6419 C623.8257,722.3003 608.919,734.9408 588.002,752.6784 " fill="none" id="Success-backto-Black" style="stroke:#181818;stroke-width:1.0;"/><polygon fill="none" points="658.377,693,640.7681,700.0658,648.5294,709.218,658.377,693" style="stroke:#181818;stroke-width:1.0;"/></g><!--reverse link Success to White--><g id="link_Success_White"><path codeLine="32" d="M685.5,711 C685.5,728.6584 685.5,734.9408 685.5,752.6784 " fill="none" id="Success-backto-White" style="stroke:#181818;stroke-width:1.0;"/><polygon fill="none" points="685.5,693,679.5,711,691.5,711,685.5,693" style="stroke:#181818;stroke-width:1.0;"/></g><!--link Result to Success--><g id="link_Result_Success"><path codeLine="33" d="M629.3345,547.0881 C642.9475,576.3931 658.6453,610.1884 672.2373,639.4484 " fill="none" id="Result-Success" style="stroke:#181818;stroke-width:1.0;"/><polygon fill="#181818" points="624.279,536.205,623.1791,543.3317,629.3345,547.0881,630.4345,539.9614,624.279,536.205" style="stroke:#181818;stroke-width:1.0;"/><polygon fill="#181818" points="674.765,644.89,674.6011,635.0425,672.6586,640.3554,667.3457,638.4128,674.765,644.89" style="stroke:#181818;stroke-width:1.0;"/><text fill="#000000" font-family="sans-serif" font-size="13" lengthAdjust="spacing" textLength="24" x="644.9392" y="633.8738">2..4</text></g><!--reverse link Result to WinnerResult--><g id="link_Result_WinnerResult"><path codeLine="34" d="M595.3747,552.5697 C581.9507,581.8747 566.489,615.63 553.086,644.89 " fill="none" id="Result-backto-WinnerResult" style="stroke:#181818;stroke-width:1.0;"/><polygon fill="none" points="602.871,536.205,589.9197,550.071,600.8296,555.0685,602.871,536.205" style="stroke:#181818;stroke-width:1.0;"/></g><!--link WinnerResult to Black--><g id="link_WinnerResult_Black"><path codeLine="35" d="M548.4146,704.8307 C551.4126,722.4891 552.5235,729.0255 555.5355,746.7631 " fill="none" id="WinnerResult-Black" style="stroke:#181818;stroke-width:1.0;"/><polygon fill="#181818" points="546.406,693,543.4667,699.5849,548.4146,704.8307,551.3539,698.2458,546.406,693" style="stroke:#181818;stroke-width:1.0;"/><polygon fill="#181818" points="556.54,752.6784,558.9768,743.1358,555.7029,747.749,551.0897,744.4751,556.54,752.6784" style="stroke:#181818;stroke-width:1.0;"/><text fill="#000000" font-family="sans-serif" font-size="13" lengthAdjust="spacing" textLength="8" x="546.5998" y="742.005">4</text></g><!--reverse link Combination to ProposedCombination--><g id="link_Combination_ProposedCombination"><path codeLine="36" d="M171.8802,394.9875 C187.9512,424.2925 206.781,458.63 222.827,487.89 " fill="none" id="Combination-backto-ProposedCombination" style="stroke:#181818;stroke-width:1.0;"/><polygon fill="none" points="163.225,379.205,166.6194,397.8726,177.141,392.1024,163.225,379.205" style="stroke:#181818;stroke-width:1.0;"/></g><!--reverse link Combination to SecretCombination--><g id="link_Combination_SecretCombination"><path codeLine="37" d="M229.8575,384.5582 C269.8635,399.6932 305.488,414.937 349.5,439 C375.705,453.328 403.419,472.752 423.642,487.815 " fill="none" id="Combination-backto-SecretCombination" style="stroke:#181818;stroke-width:1.0;"/><polygon fill="none" points="213.022,378.189,227.7344,390.17,231.9805,378.9463,213.022,378.189" style="stroke:#181818;stroke-width:1.0;"/></g><!--link Combination to Color--><g id="link_Combination_Color"><path codeLine="38" d="M130.0073,389.4363 C120.2243,405.3983 116.0623,412.1873 102.8375,433.7653 " fill="none" id="Combination-Color" style="stroke:#181818;stroke-width:1.0;"/><polygon fill="#181818" points="136.278,379.205,129.7322,382.2304,130.0073,389.4363,136.5531,386.4109,136.278,379.205" style="stroke:#181818;stroke-width:1.0;"/><polygon fill="#181818" points="99.7022,438.881,107.8156,433.2977,102.3149,434.618,100.9947,429.1173,99.7022,438.881" style="stroke:#181818;stroke-width:1.0;"/><text fill="#000000" font-family="sans-serif" font-size="13" lengthAdjust="spacing" textLength="8" x="95.6596" y="428.0293">4</text></g><!--reverse link Player to MakerPlayer--><g id="link_Player_MakerPlayer"><path codeLine="39" d="M393.0931,271.4286 C434.6381,289.2576 484.943,310.846 531.813,330.96 " fill="none" id="Player-backto-MakerPlayer" style="stroke:#181818;stroke-width:1.0;"/><polygon fill="none" points="376.552,264.33,390.7269,276.9423,395.4594,265.9149,376.552,264.33" style="stroke:#181818;stroke-width:1.0;"/></g><!--reverse link Player to BreakerPlayer--><g id="link_Player_BreakerPlayer"><path codeLine="40" d="M329.3172,288.5556 C325.3192,306.2136 323.796,312.941 319.78,330.678 " fill="none" id="Player-backto-BreakerPlayer" style="stroke:#181818;stroke-width:1.0;"/><polygon fill="none" points="333.292,271,323.4653,287.2307,335.1691,289.8806,333.292,271" style="stroke:#181818;stroke-width:1.0;"/></g><!--link MakerPlayer to SecretCombination--><g id="link_MakerPlayer_SecretCombination"><path codeLine="41" d="M565.738,379.205 C540.782,408.51 501.9891,454.062 477.0711,483.322 " fill="none" id="MakerPlayer-to-SecretCombination" style="stroke:#181818;stroke-width:1.0;"/><polygon fill="#181818" points="473.181,487.89,482.0616,483.6314,476.4228,484.0833,475.9709,478.4445,473.181,487.89" style="stroke:#181818;stroke-width:1.0;"/></g><!--link MakerPlayer to Result--><g id="link_MakerPlayer_Result"><path codeLine="42" d="M589.692,379.205 C594.986,408.51 602.9735,452.7255 608.2585,481.9855 " fill="none" id="MakerPlayer-to-Result" style="stroke:#181818;stroke-width:1.0;stroke-dasharray:7.0,7.0;"/><polygon fill="#181818" points="609.325,487.89,611.6616,478.3223,608.4363,482.9696,603.789,479.7443,609.325,487.89" style="stroke:#181818;stroke-width:1.0;"/></g><!--link BreakerPlayer to ProposedCombination--><g id="link_BreakerPlayer_ProposedCombination"><path codeLine="43" d="M302.673,379.205 C287.737,408.51 264.9166,453.2843 250.0036,482.5443 " fill="none" id="BreakerPlayer-to-ProposedCombination" style="stroke:#181818;stroke-width:1.0;"/><polygon fill="#181818" points="247.279,487.89,254.9297,481.6878,249.5495,483.4352,247.802,478.055,247.279,487.89" style="stroke:#181818;stroke-width:1.0;"/><text fill="#000000" font-family="sans-serif" font-size="13" lengthAdjust="spacing" textLength="32" x="214.1974" y="476.8738">0..10</text></g><!--SRC=[TL9TJyCW57sMNq7wQ0APPezcIJV9NjgvT3FB7f6IsAm50ssCKV-xykLWp1VWddlkrxcmdceDQwf7hePEj81PO3yfuPzBILM0jptzuCeRDJrnbI1BnJDi9OUNJj2nao7XLiatgNcRUtQSAJxcUCFrr8_UE7H2S9L0kuanhdKWl7OZ3ntrb9q05zFmsqWl5Vm4DmWsvD5SwuQGZNaigsTYxYEfggU3UQsEfVNKvPfizYNu1k2i4Rn5Q06B-y8FUkbnYbsYLb9pGDJATv5ai16EbclWdDBMd65yDokkAPYpl4HU7FZmXP3N8u6SN8uS9iDuNWHHlSTnO-rZmmVE2rSWQim5Nkiu8-MZnvHGmUuHEE5SNFmHOppzZX7hRmDvnPY53GilmlTBqfsN-EzAVW00]--></g></svg>