<?xml version="1.0" encoding="us-ascii" standalone="no"?><svg xmlns="http://www.w3.org/2000/svg" xmlns:xlink="http://www.w3.org/1999/xlink" contentStyleType="text/css" height="732px" preserveAspectRatio="none" style="width:876px;height:732px;background:#FFFFFF;" version="1.1" viewBox="0 0 876 732" width="876px" zoomAndPan="magnify"><defs/><g><!--class Mastermind--><g id="elem_Mastermind"><rect codeLine="1" fill="#F1F1F1" height="48" id="Mastermind" rx="2.5" ry="2.5" style="stroke:#181818;stroke-width:0.5;" width="117" x="340" y="7"/><ellipse cx="355" cy="23" fill="#ADD1B2" rx="11" ry="11" style="stroke:#181818;stroke-width:1.0;"/><path d="M357.3438,18.6719 C356.4063,18.2344 355.8125,18.0938 354.9375,18.0938 C352.3125,18.0938 350.3125,20.1719 350.3125,22.8906 L350.3125,24.0156 C350.3125,26.5938 352.4219,28.4844 355.3125,28.4844 C356.5313,28.4844 357.6875,28.1875 358.4375,27.6406 C359.0156,27.2344 359.3438,26.7813 359.3438,26.3906 C359.3438,25.9375 358.9531,25.5469 358.4844,25.5469 C358.2656,25.5469 358.0625,25.625 357.875,25.8125 C357.4219,26.2969 357.4219,26.2969 357.2344,26.3906 C356.8125,26.6563 356.125,26.7813 355.3594,26.7813 C353.3125,26.7813 352.0156,25.6875 352.0156,23.9844 L352.0156,22.8906 C352.0156,21.1094 353.2656,19.7969 355,19.7969 C355.5781,19.7969 356.1875,19.9531 356.6563,20.2031 C357.1406,20.4844 357.3125,20.7031 357.4063,21.1094 C357.4688,21.5156 357.5,21.6406 357.6406,21.7656 C357.7813,21.9063 358.0156,22.0156 358.2344,22.0156 C358.5,22.0156 358.7656,21.875 358.9375,21.6563 C359.0469,21.5 359.0781,21.3125 359.0781,20.8906 L359.0781,19.4688 C359.0781,19.0313 359.0625,18.9063 358.9688,18.75 C358.8125,18.4844 358.5313,18.3438 358.2344,18.3438 C357.9375,18.3438 357.7344,18.4375 357.5156,18.75 L357.3438,18.6719 Z " fill="#000000"/><text fill="#000000" font-family="sans-serif" font-size="14" lengthAdjust="spacing" textLength="85" x="369" y="27.8467">Mastermind</text><line style="stroke:#181818;stroke-width:0.5;" x1="341" x2="456" y1="39" y2="39"/><line style="stroke:#181818;stroke-width:0.5;" x1="341" x2="456" y1="47" y2="47"/></g><!--class Board--><g id="elem_Board"><rect codeLine="2" fill="#F1F1F1" height="48" id="Board" rx="2.5" ry="2.5" style="stroke:#181818;stroke-width:0.5;" width="74" x="99.5" y="350"/><ellipse cx="114.5" cy="366" fill="#ADD1B2" rx="11" ry="11" style="stroke:#181818;stroke-width:1.0;"/><path d="M116.8438,361.6719 C115.9063,361.2344 115.3125,361.0938 114.4375,361.0938 C111.8125,361.0938 109.8125,363.1719 109.8125,365.8906 L109.8125,367.0156 C109.8125,369.5938 111.9219,371.4844 114.8125,371.4844 C116.0313,371.4844 117.1875,371.1875 117.9375,370.6406 C118.5156,370.2344 118.8438,369.7813 118.8438,369.3906 C118.8438,368.9375 118.4531,368.5469 117.9844,368.5469 C117.7656,368.5469 117.5625,368.625 117.375,368.8125 C116.9219,369.2969 116.9219,369.2969 116.7344,369.3906 C116.3125,369.6563 115.625,369.7813 114.8594,369.7813 C112.8125,369.7813 111.5156,368.6875 111.5156,366.9844 L111.5156,365.8906 C111.5156,364.1094 112.7656,362.7969 114.5,362.7969 C115.0781,362.7969 115.6875,362.9531 116.1563,363.2031 C116.6406,363.4844 116.8125,363.7031 116.9063,364.1094 C116.9688,364.5156 117,364.6406 117.1406,364.7656 C117.2813,364.9063 117.5156,365.0156 117.7344,365.0156 C118,365.0156 118.2656,364.875 118.4375,364.6563 C118.5469,364.5 118.5781,364.3125 118.5781,363.8906 L118.5781,362.4688 C118.5781,362.0313 118.5625,361.9063 118.4688,361.75 C118.3125,361.4844 118.0313,361.3438 117.7344,361.3438 C117.4375,361.3438 117.2344,361.4375 117.0156,361.75 L116.8438,361.6719 Z " fill="#000000"/><text fill="#000000" font-family="sans-serif" font-size="14" lengthAdjust="spacing" textLength="42" x="128.5" y="370.8467">Board</text><line style="stroke:#181818;stroke-width:0.5;" x1="100.5" x2="172.5" y1="382" y2="382"/><line style="stroke:#181818;stroke-width:0.5;" x1="100.5" x2="172.5" y1="390" y2="390"/></g><!--class Token--><g id="elem_Token"><rect codeLine="3" fill="#F1F1F1" height="48" id="Token" rx="2.5" ry="2.5" style="stroke:#181818;stroke-width:0.5;" width="77" x="98" y="459"/><ellipse cx="113" cy="475" fill="#ADD1B2" rx="11" ry="11" style="stroke:#181818;stroke-width:1.0;"/><path d="M115.3438,470.6719 C114.4063,470.2344 113.8125,470.0938 112.9375,470.0938 C110.3125,470.0938 108.3125,472.1719 108.3125,474.8906 L108.3125,476.0156 C108.3125,478.5938 110.4219,480.4844 113.3125,480.4844 C114.5313,480.4844 115.6875,480.1875 116.4375,479.6406 C117.0156,479.2344 117.3438,478.7813 117.3438,478.3906 C117.3438,477.9375 116.9531,477.5469 116.4844,477.5469 C116.2656,477.5469 116.0625,477.625 115.875,477.8125 C115.4219,478.2969 115.4219,478.2969 115.2344,478.3906 C114.8125,478.6563 114.125,478.7813 113.3594,478.7813 C111.3125,478.7813 110.0156,477.6875 110.0156,475.9844 L110.0156,474.8906 C110.0156,473.1094 111.2656,471.7969 113,471.7969 C113.5781,471.7969 114.1875,471.9531 114.6563,472.2031 C115.1406,472.4844 115.3125,472.7031 115.4063,473.1094 C115.4688,473.5156 115.5,473.6406 115.6406,473.7656 C115.7813,473.9063 116.0156,474.0156 116.2344,474.0156 C116.5,474.0156 116.7656,473.875 116.9375,473.6563 C117.0469,473.5 117.0781,473.3125 117.0781,472.8906 L117.0781,471.4688 C117.0781,471.0313 117.0625,470.9063 116.9688,470.75 C116.8125,470.4844 116.5313,470.3438 116.2344,470.3438 C115.9375,470.3438 115.7344,470.4375 115.5156,470.75 L115.3438,470.6719 Z " fill="#000000"/><text fill="#000000" font-family="sans-serif" font-size="14" lengthAdjust="spacing" textLength="45" x="127" y="479.8467">Token</text><line style="stroke:#181818;stroke-width:0.5;" x1="99" x2="174" y1="491" y2="491"/><line style="stroke:#181818;stroke-width:0.5;" x1="99" x2="174" y1="499" y2="499"/></g><!--class TokensResult--><g id="elem_TokensResult"><rect codeLine="4" fill="#F1F1F1" height="48" id="TokensResult" rx="2.5" ry="2.5" style="stroke:#181818;stroke-width:0.5;" width="129" x="72" y="568"/><ellipse cx="87" cy="584" fill="#ADD1B2" rx="11" ry="11" style="stroke:#181818;stroke-width:1.0;"/><path d="M89.3438,579.6719 C88.4063,579.2344 87.8125,579.0938 86.9375,579.0938 C84.3125,579.0938 82.3125,581.1719 82.3125,583.8906 L82.3125,585.0156 C82.3125,587.5938 84.4219,589.4844 87.3125,589.4844 C88.5313,589.4844 89.6875,589.1875 90.4375,588.6406 C91.0156,588.2344 91.3438,587.7813 91.3438,587.3906 C91.3438,586.9375 90.9531,586.5469 90.4844,586.5469 C90.2656,586.5469 90.0625,586.625 89.875,586.8125 C89.4219,587.2969 89.4219,587.2969 89.2344,587.3906 C88.8125,587.6563 88.125,587.7813 87.3594,587.7813 C85.3125,587.7813 84.0156,586.6875 84.0156,584.9844 L84.0156,583.8906 C84.0156,582.1094 85.2656,580.7969 87,580.7969 C87.5781,580.7969 88.1875,580.9531 88.6563,581.2031 C89.1406,581.4844 89.3125,581.7031 89.4063,582.1094 C89.4688,582.5156 89.5,582.6406 89.6406,582.7656 C89.7813,582.9063 90.0156,583.0156 90.2344,583.0156 C90.5,583.0156 90.7656,582.875 90.9375,582.6563 C91.0469,582.5 91.0781,582.3125 91.0781,581.8906 L91.0781,580.4688 C91.0781,580.0313 91.0625,579.9063 90.9688,579.75 C90.8125,579.4844 90.5313,579.3438 90.2344,579.3438 C89.9375,579.3438 89.7344,579.4375 89.5156,579.75 L89.3438,579.6719 Z " fill="#000000"/><text fill="#000000" font-family="sans-serif" font-size="14" lengthAdjust="spacing" textLength="97" x="101" y="588.8467">TokensResult</text><line style="stroke:#181818;stroke-width:0.5;" x1="73" x2="200" y1="600" y2="600"/><line style="stroke:#181818;stroke-width:0.5;" x1="73" x2="200" y1="608" y2="608"/></g><!--class ProposalTokens--><g id="elem_ProposalTokens"><rect codeLine="5" fill="#F1F1F1" height="48" id="ProposalTokens" rx="2.5" ry="2.5" style="stroke:#181818;stroke-width:0.5;" width="146" x="423.5" y="568"/><ellipse cx="438.5" cy="584" fill="#ADD1B2" rx="11" ry="11" style="stroke:#181818;stroke-width:1.0;"/><path d="M440.8438,579.6719 C439.9063,579.2344 439.3125,579.0938 438.4375,579.0938 C435.8125,579.0938 433.8125,581.1719 433.8125,583.8906 L433.8125,585.0156 C433.8125,587.5938 435.9219,589.4844 438.8125,589.4844 C440.0313,589.4844 441.1875,589.1875 441.9375,588.6406 C442.5156,588.2344 442.8438,587.7813 442.8438,587.3906 C442.8438,586.9375 442.4531,586.5469 441.9844,586.5469 C441.7656,586.5469 441.5625,586.625 441.375,586.8125 C440.9219,587.2969 440.9219,587.2969 440.7344,587.3906 C440.3125,587.6563 439.625,587.7813 438.8594,587.7813 C436.8125,587.7813 435.5156,586.6875 435.5156,584.9844 L435.5156,583.8906 C435.5156,582.1094 436.7656,580.7969 438.5,580.7969 C439.0781,580.7969 439.6875,580.9531 440.1563,581.2031 C440.6406,581.4844 440.8125,581.7031 440.9063,582.1094 C440.9688,582.5156 441,582.6406 441.1406,582.7656 C441.2813,582.9063 441.5156,583.0156 441.7344,583.0156 C442,583.0156 442.2656,582.875 442.4375,582.6563 C442.5469,582.5 442.5781,582.3125 442.5781,581.8906 L442.5781,580.4688 C442.5781,580.0313 442.5625,579.9063 442.4688,579.75 C442.3125,579.4844 442.0313,579.3438 441.7344,579.3438 C441.4375,579.3438 441.2344,579.4375 441.0156,579.75 L440.8438,579.6719 Z " fill="#000000"/><text fill="#000000" font-family="sans-serif" font-size="14" lengthAdjust="spacing" textLength="114" x="452.5" y="588.8467">ProposalTokens</text><line style="stroke:#181818;stroke-width:0.5;" x1="424.5" x2="568.5" y1="600" y2="600"/><line style="stroke:#181818;stroke-width:0.5;" x1="424.5" x2="568.5" y1="608" y2="608"/></g><!--class Player--><g id="elem_Player"><rect codeLine="6" fill="#F1F1F1" height="48" id="Player" rx="2.5" ry="2.5" style="stroke:#181818;stroke-width:0.5;" width="76" x="360.5" y="116"/><ellipse cx="375.5" cy="132" fill="#ADD1B2" rx="11" ry="11" style="stroke:#181818;stroke-width:1.0;"/><path d="M377.8438,127.6719 C376.9063,127.2344 376.3125,127.0938 375.4375,127.0938 C372.8125,127.0938 370.8125,129.1719 370.8125,131.8906 L370.8125,133.0156 C370.8125,135.5938 372.9219,137.4844 375.8125,137.4844 C377.0313,137.4844 378.1875,137.1875 378.9375,136.6406 C379.5156,136.2344 379.8438,135.7813 379.8438,135.3906 C379.8438,134.9375 379.4531,134.5469 378.9844,134.5469 C378.7656,134.5469 378.5625,134.625 378.375,134.8125 C377.9219,135.2969 377.9219,135.2969 377.7344,135.3906 C377.3125,135.6563 376.625,135.7813 375.8594,135.7813 C373.8125,135.7813 372.5156,134.6875 372.5156,132.9844 L372.5156,131.8906 C372.5156,130.1094 373.7656,128.7969 375.5,128.7969 C376.0781,128.7969 376.6875,128.9531 377.1563,129.2031 C377.6406,129.4844 377.8125,129.7031 377.9063,130.1094 C377.9688,130.5156 378,130.6406 378.1406,130.7656 C378.2813,130.9063 378.5156,131.0156 378.7344,131.0156 C379,131.0156 379.2656,130.875 379.4375,130.6563 C379.5469,130.5 379.5781,130.3125 379.5781,129.8906 L379.5781,128.4688 C379.5781,128.0313 379.5625,127.9063 379.4688,127.75 C379.3125,127.4844 379.0313,127.3438 378.7344,127.3438 C378.4375,127.3438 378.2344,127.4375 378.0156,127.75 L377.8438,127.6719 Z " fill="#000000"/><text fill="#000000" font-family="sans-serif" font-size="14" lengthAdjust="spacing" textLength="44" x="389.5" y="136.8467">Player</text><line style="stroke:#181818;stroke-width:0.5;" x1="361.5" x2="435.5" y1="148" y2="148"/><line style="stroke:#181818;stroke-width:0.5;" x1="361.5" x2="435.5" y1="156" y2="156"/></g><!--class SecretCombinationCreator--><g id="elem_SecretCombinationCreator"><rect codeLine="7" fill="#F1F1F1" height="48" id="SecretCombinationCreator" rx="2.5" ry="2.5" style="stroke:#181818;stroke-width:0.5;" width="228" x="191.5" y="225"/><ellipse cx="206.5" cy="241" fill="#ADD1B2" rx="11" ry="11" style="stroke:#181818;stroke-width:1.0;"/><path d="M208.8438,236.6719 C207.9063,236.2344 207.3125,236.0938 206.4375,236.0938 C203.8125,236.0938 201.8125,238.1719 201.8125,240.8906 L201.8125,242.0156 C201.8125,244.5938 203.9219,246.4844 206.8125,246.4844 C208.0313,246.4844 209.1875,246.1875 209.9375,245.6406 C210.5156,245.2344 210.8438,244.7813 210.8438,244.3906 C210.8438,243.9375 210.4531,243.5469 209.9844,243.5469 C209.7656,243.5469 209.5625,243.625 209.375,243.8125 C208.9219,244.2969 208.9219,244.2969 208.7344,244.3906 C208.3125,244.6563 207.625,244.7813 206.8594,244.7813 C204.8125,244.7813 203.5156,243.6875 203.5156,241.9844 L203.5156,240.8906 C203.5156,239.1094 204.7656,237.7969 206.5,237.7969 C207.0781,237.7969 207.6875,237.9531 208.1563,238.2031 C208.6406,238.4844 208.8125,238.7031 208.9063,239.1094 C208.9688,239.5156 209,239.6406 209.1406,239.7656 C209.2813,239.9063 209.5156,240.0156 209.7344,240.0156 C210,240.0156 210.2656,239.875 210.4375,239.6563 C210.5469,239.5 210.5781,239.3125 210.5781,238.8906 L210.5781,237.4688 C210.5781,237.0313 210.5625,236.9063 210.4688,236.75 C210.3125,236.4844 210.0313,236.3438 209.7344,236.3438 C209.4375,236.3438 209.2344,236.4375 209.0156,236.75 L208.8438,236.6719 Z " fill="#000000"/><text fill="#000000" font-family="sans-serif" font-size="14" lengthAdjust="spacing" textLength="196" x="220.5" y="245.8467">SecretCombinationCreator</text><line style="stroke:#181818;stroke-width:0.5;" x1="192.5" x2="418.5" y1="257" y2="257"/><line style="stroke:#181818;stroke-width:0.5;" x1="192.5" x2="418.5" y1="265" y2="265"/></g><!--class Decipher--><g id="elem_Decipher"><rect codeLine="8" fill="#F1F1F1" height="48" id="Decipher" rx="2.5" ry="2.5" style="stroke:#181818;stroke-width:0.5;" width="98" x="454.5" y="225"/><ellipse cx="469.5" cy="241" fill="#ADD1B2" rx="11" ry="11" style="stroke:#181818;stroke-width:1.0;"/><path d="M471.8438,236.6719 C470.9063,236.2344 470.3125,236.0938 469.4375,236.0938 C466.8125,236.0938 464.8125,238.1719 464.8125,240.8906 L464.8125,242.0156 C464.8125,244.5938 466.9219,246.4844 469.8125,246.4844 C471.0313,246.4844 472.1875,246.1875 472.9375,245.6406 C473.5156,245.2344 473.8438,244.7813 473.8438,244.3906 C473.8438,243.9375 473.4531,243.5469 472.9844,243.5469 C472.7656,243.5469 472.5625,243.625 472.375,243.8125 C471.9219,244.2969 471.9219,244.2969 471.7344,244.3906 C471.3125,244.6563 470.625,244.7813 469.8594,244.7813 C467.8125,244.7813 466.5156,243.6875 466.5156,241.9844 L466.5156,240.8906 C466.5156,239.1094 467.7656,237.7969 469.5,237.7969 C470.0781,237.7969 470.6875,237.9531 471.1563,238.2031 C471.6406,238.4844 471.8125,238.7031 471.9063,239.1094 C471.9688,239.5156 472,239.6406 472.1406,239.7656 C472.2813,239.9063 472.5156,240.0156 472.7344,240.0156 C473,240.0156 473.2656,239.875 473.4375,239.6563 C473.5469,239.5 473.5781,239.3125 473.5781,238.8906 L473.5781,237.4688 C473.5781,237.0313 473.5625,236.9063 473.4688,236.75 C473.3125,236.4844 473.0313,236.3438 472.7344,236.3438 C472.4375,236.3438 472.2344,236.4375 472.0156,236.75 L471.8438,236.6719 Z " fill="#000000"/><text fill="#000000" font-family="sans-serif" font-size="14" lengthAdjust="spacing" textLength="66" x="483.5" y="245.8467">Decipher</text><line style="stroke:#181818;stroke-width:0.5;" x1="455.5" x2="551.5" y1="257" y2="257"/><line style="stroke:#181818;stroke-width:0.5;" x1="455.5" x2="551.5" y1="265" y2="265"/></g><!--class Attempt--><g id="elem_Attempt"><rect codeLine="9" fill="#F1F1F1" height="48" id="Attempt" rx="2.5" ry="2.5" style="stroke:#181818;stroke-width:0.5;" width="96" x="773.5" y="350"/><ellipse cx="788.5" cy="366" fill="#ADD1B2" rx="11" ry="11" style="stroke:#181818;stroke-width:1.0;"/><path d="M790.8438,361.6719 C789.9063,361.2344 789.3125,361.0938 788.4375,361.0938 C785.8125,361.0938 783.8125,363.1719 783.8125,365.8906 L783.8125,367.0156 C783.8125,369.5938 785.9219,371.4844 788.8125,371.4844 C790.0313,371.4844 791.1875,371.1875 791.9375,370.6406 C792.5156,370.2344 792.8438,369.7813 792.8438,369.3906 C792.8438,368.9375 792.4531,368.5469 791.9844,368.5469 C791.7656,368.5469 791.5625,368.625 791.375,368.8125 C790.9219,369.2969 790.9219,369.2969 790.7344,369.3906 C790.3125,369.6563 789.625,369.7813 788.8594,369.7813 C786.8125,369.7813 785.5156,368.6875 785.5156,366.9844 L785.5156,365.8906 C785.5156,364.1094 786.7656,362.7969 788.5,362.7969 C789.0781,362.7969 789.6875,362.9531 790.1563,363.2031 C790.6406,363.4844 790.8125,363.7031 790.9063,364.1094 C790.9688,364.5156 791,364.6406 791.1406,364.7656 C791.2813,364.9063 791.5156,365.0156 791.7344,365.0156 C792,365.0156 792.2656,364.875 792.4375,364.6563 C792.5469,364.5 792.5781,364.3125 792.5781,363.8906 L792.5781,362.4688 C792.5781,362.0313 792.5625,361.9063 792.4688,361.75 C792.3125,361.4844 792.0313,361.3438 791.7344,361.3438 C791.4375,361.3438 791.2344,361.4375 791.0156,361.75 L790.8438,361.6719 Z " fill="#000000"/><text fill="#000000" font-family="sans-serif" font-size="14" lengthAdjust="spacing" textLength="64" x="802.5" y="370.8467">Attempt</text><line style="stroke:#181818;stroke-width:0.5;" x1="774.5" x2="868.5" y1="382" y2="382"/><line style="stroke:#181818;stroke-width:0.5;" x1="774.5" x2="868.5" y1="390" y2="390"/></g><!--class Action--><g id="elem_Action"><rect codeLine="10" fill="#F1F1F1" height="48" id="Action" rx="2.5" ry="2.5" style="stroke:#181818;stroke-width:0.5;" width="79" x="588" y="225"/><ellipse cx="603" cy="241" fill="#ADD1B2" rx="11" ry="11" style="stroke:#181818;stroke-width:1.0;"/><path d="M605.3438,236.6719 C604.4063,236.2344 603.8125,236.0938 602.9375,236.0938 C600.3125,236.0938 598.3125,238.1719 598.3125,240.8906 L598.3125,242.0156 C598.3125,244.5938 600.4219,246.4844 603.3125,246.4844 C604.5313,246.4844 605.6875,246.1875 606.4375,245.6406 C607.0156,245.2344 607.3438,244.7813 607.3438,244.3906 C607.3438,243.9375 606.9531,243.5469 606.4844,243.5469 C606.2656,243.5469 606.0625,243.625 605.875,243.8125 C605.4219,244.2969 605.4219,244.2969 605.2344,244.3906 C604.8125,244.6563 604.125,244.7813 603.3594,244.7813 C601.3125,244.7813 600.0156,243.6875 600.0156,241.9844 L600.0156,240.8906 C600.0156,239.1094 601.2656,237.7969 603,237.7969 C603.5781,237.7969 604.1875,237.9531 604.6563,238.2031 C605.1406,238.4844 605.3125,238.7031 605.4063,239.1094 C605.4688,239.5156 605.5,239.6406 605.6406,239.7656 C605.7813,239.9063 606.0156,240.0156 606.2344,240.0156 C606.5,240.0156 606.7656,239.875 606.9375,239.6563 C607.0469,239.5 607.0781,239.3125 607.0781,238.8906 L607.0781,237.4688 C607.0781,237.0313 607.0625,236.9063 606.9688,236.75 C606.8125,236.4844 606.5313,236.3438 606.2344,236.3438 C605.9375,236.3438 605.7344,236.4375 605.5156,236.75 L605.3438,236.6719 Z " fill="#000000"/><text fill="#000000" font-family="sans-serif" font-size="14" lengthAdjust="spacing" textLength="47" x="617" y="245.8467">Action</text><line style="stroke:#181818;stroke-width:0.5;" x1="589" x2="666" y1="257" y2="257"/><line style="stroke:#181818;stroke-width:0.5;" x1="589" x2="666" y1="265" y2="265"/></g><!--class GenerateSecretCombination--><g id="elem_GenerateSecretCombination"><rect codeLine="11" fill="#F1F1F1" height="48" id="GenerateSecretCombination" rx="2.5" ry="2.5" style="stroke:#181818;stroke-width:0.5;" width="241" x="209" y="350"/><ellipse cx="224" cy="366" fill="#ADD1B2" rx="11" ry="11" style="stroke:#181818;stroke-width:1.0;"/><path d="M226.3438,361.6719 C225.4063,361.2344 224.8125,361.0938 223.9375,361.0938 C221.3125,361.0938 219.3125,363.1719 219.3125,365.8906 L219.3125,367.0156 C219.3125,369.5938 221.4219,371.4844 224.3125,371.4844 C225.5313,371.4844 226.6875,371.1875 227.4375,370.6406 C228.0156,370.2344 228.3438,369.7813 228.3438,369.3906 C228.3438,368.9375 227.9531,368.5469 227.4844,368.5469 C227.2656,368.5469 227.0625,368.625 226.875,368.8125 C226.4219,369.2969 226.4219,369.2969 226.2344,369.3906 C225.8125,369.6563 225.125,369.7813 224.3594,369.7813 C222.3125,369.7813 221.0156,368.6875 221.0156,366.9844 L221.0156,365.8906 C221.0156,364.1094 222.2656,362.7969 224,362.7969 C224.5781,362.7969 225.1875,362.9531 225.6563,363.2031 C226.1406,363.4844 226.3125,363.7031 226.4063,364.1094 C226.4688,364.5156 226.5,364.6406 226.6406,364.7656 C226.7813,364.9063 227.0156,365.0156 227.2344,365.0156 C227.5,365.0156 227.7656,364.875 227.9375,364.6563 C228.0469,364.5 228.0781,364.3125 228.0781,363.8906 L228.0781,362.4688 C228.0781,362.0313 228.0625,361.9063 227.9688,361.75 C227.8125,361.4844 227.5313,361.3438 227.2344,361.3438 C226.9375,361.3438 226.7344,361.4375 226.5156,361.75 L226.3438,361.6719 Z " fill="#000000"/><text fill="#000000" font-family="sans-serif" font-size="14" lengthAdjust="spacing" textLength="209" x="238" y="370.8467">GenerateSecretCombination</text><line style="stroke:#181818;stroke-width:0.5;" x1="210" x2="449" y1="382" y2="382"/><line style="stroke:#181818;stroke-width:0.5;" x1="210" x2="449" y1="390" y2="390"/></g><!--class GenerateDecryption--><g id="elem_GenerateDecryption"><rect codeLine="12" fill="#F1F1F1" height="48" id="GenerateDecryption" rx="2.5" ry="2.5" style="stroke:#181818;stroke-width:0.5;" width="181" x="557" y="350"/><ellipse cx="572" cy="366" fill="#ADD1B2" rx="11" ry="11" style="stroke:#181818;stroke-width:1.0;"/><path d="M574.3438,361.6719 C573.4063,361.2344 572.8125,361.0938 571.9375,361.0938 C569.3125,361.0938 567.3125,363.1719 567.3125,365.8906 L567.3125,367.0156 C567.3125,369.5938 569.4219,371.4844 572.3125,371.4844 C573.5313,371.4844 574.6875,371.1875 575.4375,370.6406 C576.0156,370.2344 576.3438,369.7813 576.3438,369.3906 C576.3438,368.9375 575.9531,368.5469 575.4844,368.5469 C575.2656,368.5469 575.0625,368.625 574.875,368.8125 C574.4219,369.2969 574.4219,369.2969 574.2344,369.3906 C573.8125,369.6563 573.125,369.7813 572.3594,369.7813 C570.3125,369.7813 569.0156,368.6875 569.0156,366.9844 L569.0156,365.8906 C569.0156,364.1094 570.2656,362.7969 572,362.7969 C572.5781,362.7969 573.1875,362.9531 573.6563,363.2031 C574.1406,363.4844 574.3125,363.7031 574.4063,364.1094 C574.4688,364.5156 574.5,364.6406 574.6406,364.7656 C574.7813,364.9063 575.0156,365.0156 575.2344,365.0156 C575.5,365.0156 575.7656,364.875 575.9375,364.6563 C576.0469,364.5 576.0781,364.3125 576.0781,363.8906 L576.0781,362.4688 C576.0781,362.0313 576.0625,361.9063 575.9688,361.75 C575.8125,361.4844 575.5313,361.3438 575.2344,361.3438 C574.9375,361.3438 574.7344,361.4375 574.5156,361.75 L574.3438,361.6719 Z " fill="#000000"/><text fill="#000000" font-family="sans-serif" font-size="14" lengthAdjust="spacing" textLength="149" x="586" y="370.8467">GenerateDecryption</text><line style="stroke:#181818;stroke-width:0.5;" x1="558" x2="737" y1="382" y2="382"/><line style="stroke:#181818;stroke-width:0.5;" x1="558" x2="737" y1="390" y2="390"/></g><!--class Black--><g id="elem_Black"><rect codeLine="13" fill="#F1F1F1" height="48" id="Black" rx="2.5" ry="2.5" style="stroke:#181818;stroke-width:0.5;" width="71" x="7" y="677"/><ellipse cx="22" cy="693" fill="#ADD1B2" rx="11" ry="11" style="stroke:#181818;stroke-width:1.0;"/><path d="M24.3438,688.6719 C23.4063,688.2344 22.8125,688.0938 21.9375,688.0938 C19.3125,688.0938 17.3125,690.1719 17.3125,692.8906 L17.3125,694.0156 C17.3125,696.5938 19.4219,698.4844 22.3125,698.4844 C23.5313,698.4844 24.6875,698.1875 25.4375,697.6406 C26.0156,697.2344 26.3438,696.7813 26.3438,696.3906 C26.3438,695.9375 25.9531,695.5469 25.4844,695.5469 C25.2656,695.5469 25.0625,695.625 24.875,695.8125 C24.4219,696.2969 24.4219,696.2969 24.2344,696.3906 C23.8125,696.6563 23.125,696.7813 22.3594,696.7813 C20.3125,696.7813 19.0156,695.6875 19.0156,693.9844 L19.0156,692.8906 C19.0156,691.1094 20.2656,689.7969 22,689.7969 C22.5781,689.7969 23.1875,689.9531 23.6563,690.2031 C24.1406,690.4844 24.3125,690.7031 24.4063,691.1094 C24.4688,691.5156 24.5,691.6406 24.6406,691.7656 C24.7813,691.9063 25.0156,692.0156 25.2344,692.0156 C25.5,692.0156 25.7656,691.875 25.9375,691.6563 C26.0469,691.5 26.0781,691.3125 26.0781,690.8906 L26.0781,689.4688 C26.0781,689.0313 26.0625,688.9063 25.9688,688.75 C25.8125,688.4844 25.5313,688.3438 25.2344,688.3438 C24.9375,688.3438 24.7344,688.4375 24.5156,688.75 L24.3438,688.6719 Z " fill="#000000"/><text fill="#000000" font-family="sans-serif" font-size="14" lengthAdjust="spacing" textLength="39" x="36" y="697.8467">Black</text><line style="stroke:#181818;stroke-width:0.5;" x1="8" x2="77" y1="709" y2="709"/><line style="stroke:#181818;stroke-width:0.5;" x1="8" x2="77" y1="717" y2="717"/></g><!--class White--><g id="elem_White"><rect codeLine="14" fill="#F1F1F1" height="48" id="White" rx="2.5" ry="2.5" style="stroke:#181818;stroke-width:0.5;" width="75" x="113" y="677"/><ellipse cx="128" cy="693" fill="#ADD1B2" rx="11" ry="11" style="stroke:#181818;stroke-width:1.0;"/><path d="M130.3438,688.6719 C129.4063,688.2344 128.8125,688.0938 127.9375,688.0938 C125.3125,688.0938 123.3125,690.1719 123.3125,692.8906 L123.3125,694.0156 C123.3125,696.5938 125.4219,698.4844 128.3125,698.4844 C129.5313,698.4844 130.6875,698.1875 131.4375,697.6406 C132.0156,697.2344 132.3438,696.7813 132.3438,696.3906 C132.3438,695.9375 131.9531,695.5469 131.4844,695.5469 C131.2656,695.5469 131.0625,695.625 130.875,695.8125 C130.4219,696.2969 130.4219,696.2969 130.2344,696.3906 C129.8125,696.6563 129.125,696.7813 128.3594,696.7813 C126.3125,696.7813 125.0156,695.6875 125.0156,693.9844 L125.0156,692.8906 C125.0156,691.1094 126.2656,689.7969 128,689.7969 C128.5781,689.7969 129.1875,689.9531 129.6563,690.2031 C130.1406,690.4844 130.3125,690.7031 130.4063,691.1094 C130.4688,691.5156 130.5,691.6406 130.6406,691.7656 C130.7813,691.9063 131.0156,692.0156 131.2344,692.0156 C131.5,692.0156 131.7656,691.875 131.9375,691.6563 C132.0469,691.5 132.0781,691.3125 132.0781,690.8906 L132.0781,689.4688 C132.0781,689.0313 132.0625,688.9063 131.9688,688.75 C131.8125,688.4844 131.5313,688.3438 131.2344,688.3438 C130.9375,688.3438 130.7344,688.4375 130.5156,688.75 L130.3438,688.6719 Z " fill="#000000"/><text fill="#000000" font-family="sans-serif" font-size="14" lengthAdjust="spacing" textLength="43" x="142" y="697.8467">White</text><line style="stroke:#181818;stroke-width:0.5;" x1="114" x2="187" y1="709" y2="709"/><line style="stroke:#181818;stroke-width:0.5;" x1="114" x2="187" y1="717" y2="717"/></g><!--class Red--><g id="elem_Red"><rect codeLine="15" fill="#F1F1F1" height="48" id="Red" rx="2.5" ry="2.5" style="stroke:#181818;stroke-width:0.5;" width="60" x="230.5" y="677"/><ellipse cx="245.5" cy="693" fill="#ADD1B2" rx="11" ry="11" style="stroke:#181818;stroke-width:1.0;"/><path d="M247.8438,688.6719 C246.9063,688.2344 246.3125,688.0938 245.4375,688.0938 C242.8125,688.0938 240.8125,690.1719 240.8125,692.8906 L240.8125,694.0156 C240.8125,696.5938 242.9219,698.4844 245.8125,698.4844 C247.0313,698.4844 248.1875,698.1875 248.9375,697.6406 C249.5156,697.2344 249.8438,696.7813 249.8438,696.3906 C249.8438,695.9375 249.4531,695.5469 248.9844,695.5469 C248.7656,695.5469 248.5625,695.625 248.375,695.8125 C247.9219,696.2969 247.9219,696.2969 247.7344,696.3906 C247.3125,696.6563 246.625,696.7813 245.8594,696.7813 C243.8125,696.7813 242.5156,695.6875 242.5156,693.9844 L242.5156,692.8906 C242.5156,691.1094 243.7656,689.7969 245.5,689.7969 C246.0781,689.7969 246.6875,689.9531 247.1563,690.2031 C247.6406,690.4844 247.8125,690.7031 247.9063,691.1094 C247.9688,691.5156 248,691.6406 248.1406,691.7656 C248.2813,691.9063 248.5156,692.0156 248.7344,692.0156 C249,692.0156 249.2656,691.875 249.4375,691.6563 C249.5469,691.5 249.5781,691.3125 249.5781,690.8906 L249.5781,689.4688 C249.5781,689.0313 249.5625,688.9063 249.4688,688.75 C249.3125,688.4844 249.0313,688.3438 248.7344,688.3438 C248.4375,688.3438 248.2344,688.4375 248.0156,688.75 L247.8438,688.6719 Z " fill="#000000"/><text fill="#000000" font-family="sans-serif" font-size="14" lengthAdjust="spacing" textLength="28" x="259.5" y="697.8467">Red</text><line style="stroke:#181818;stroke-width:0.5;" x1="231.5" x2="289.5" y1="709" y2="709"/><line style="stroke:#181818;stroke-width:0.5;" x1="231.5" x2="289.5" y1="717" y2="717"/></g><!--class Green--><g id="elem_Green"><rect codeLine="16" fill="#F1F1F1" height="48" id="Green" rx="2.5" ry="2.5" style="stroke:#181818;stroke-width:0.5;" width="76" x="325.5" y="677"/><ellipse cx="340.5" cy="693" fill="#ADD1B2" rx="11" ry="11" style="stroke:#181818;stroke-width:1.0;"/><path d="M342.8438,688.6719 C341.9063,688.2344 341.3125,688.0938 340.4375,688.0938 C337.8125,688.0938 335.8125,690.1719 335.8125,692.8906 L335.8125,694.0156 C335.8125,696.5938 337.9219,698.4844 340.8125,698.4844 C342.0313,698.4844 343.1875,698.1875 343.9375,697.6406 C344.5156,697.2344 344.8438,696.7813 344.8438,696.3906 C344.8438,695.9375 344.4531,695.5469 343.9844,695.5469 C343.7656,695.5469 343.5625,695.625 343.375,695.8125 C342.9219,696.2969 342.9219,696.2969 342.7344,696.3906 C342.3125,696.6563 341.625,696.7813 340.8594,696.7813 C338.8125,696.7813 337.5156,695.6875 337.5156,693.9844 L337.5156,692.8906 C337.5156,691.1094 338.7656,689.7969 340.5,689.7969 C341.0781,689.7969 341.6875,689.9531 342.1563,690.2031 C342.6406,690.4844 342.8125,690.7031 342.9063,691.1094 C342.9688,691.5156 343,691.6406 343.1406,691.7656 C343.2813,691.9063 343.5156,692.0156 343.7344,692.0156 C344,692.0156 344.2656,691.875 344.4375,691.6563 C344.5469,691.5 344.5781,691.3125 344.5781,690.8906 L344.5781,689.4688 C344.5781,689.0313 344.5625,688.9063 344.4688,688.75 C344.3125,688.4844 344.0313,688.3438 343.7344,688.3438 C343.4375,688.3438 343.2344,688.4375 343.0156,688.75 L342.8438,688.6719 Z " fill="#000000"/><text fill="#000000" font-family="sans-serif" font-size="14" lengthAdjust="spacing" textLength="44" x="354.5" y="697.8467">Green</text><line style="stroke:#181818;stroke-width:0.5;" x1="326.5" x2="400.5" y1="709" y2="709"/><line style="stroke:#181818;stroke-width:0.5;" x1="326.5" x2="400.5" y1="717" y2="717"/></g><!--class Blue--><g id="elem_Blue"><rect codeLine="17" fill="#F1F1F1" height="48" id="Blue" rx="2.5" ry="2.5" style="stroke:#181818;stroke-width:0.5;" width="63" x="437" y="677"/><ellipse cx="452" cy="693" fill="#ADD1B2" rx="11" ry="11" style="stroke:#181818;stroke-width:1.0;"/><path d="M454.3438,688.6719 C453.4063,688.2344 452.8125,688.0938 451.9375,688.0938 C449.3125,688.0938 447.3125,690.1719 447.3125,692.8906 L447.3125,694.0156 C447.3125,696.5938 449.4219,698.4844 452.3125,698.4844 C453.5313,698.4844 454.6875,698.1875 455.4375,697.6406 C456.0156,697.2344 456.3438,696.7813 456.3438,696.3906 C456.3438,695.9375 455.9531,695.5469 455.4844,695.5469 C455.2656,695.5469 455.0625,695.625 454.875,695.8125 C454.4219,696.2969 454.4219,696.2969 454.2344,696.3906 C453.8125,696.6563 453.125,696.7813 452.3594,696.7813 C450.3125,696.7813 449.0156,695.6875 449.0156,693.9844 L449.0156,692.8906 C449.0156,691.1094 450.2656,689.7969 452,689.7969 C452.5781,689.7969 453.1875,689.9531 453.6563,690.2031 C454.1406,690.4844 454.3125,690.7031 454.4063,691.1094 C454.4688,691.5156 454.5,691.6406 454.6406,691.7656 C454.7813,691.9063 455.0156,692.0156 455.2344,692.0156 C455.5,692.0156 455.7656,691.875 455.9375,691.6563 C456.0469,691.5 456.0781,691.3125 456.0781,690.8906 L456.0781,689.4688 C456.0781,689.0313 456.0625,688.9063 455.9688,688.75 C455.8125,688.4844 455.5313,688.3438 455.2344,688.3438 C454.9375,688.3438 454.7344,688.4375 454.5156,688.75 L454.3438,688.6719 Z " fill="#000000"/><text fill="#000000" font-family="sans-serif" font-size="14" lengthAdjust="spacing" textLength="31" x="466" y="697.8467">Blue</text><line style="stroke:#181818;stroke-width:0.5;" x1="438" x2="499" y1="709" y2="709"/><line style="stroke:#181818;stroke-width:0.5;" x1="438" x2="499" y1="717" y2="717"/></g><!--class Yellow--><g id="elem_Yellow"><rect codeLine="18" fill="#F1F1F1" height="48" id="Yellow" rx="2.5" ry="2.5" style="stroke:#181818;stroke-width:0.5;" width="78" x="535.5" y="677"/><ellipse cx="550.5" cy="693" fill="#ADD1B2" rx="11" ry="11" style="stroke:#181818;stroke-width:1.0;"/><path d="M552.8438,688.6719 C551.9063,688.2344 551.3125,688.0938 550.4375,688.0938 C547.8125,688.0938 545.8125,690.1719 545.8125,692.8906 L545.8125,694.0156 C545.8125,696.5938 547.9219,698.4844 550.8125,698.4844 C552.0313,698.4844 553.1875,698.1875 553.9375,697.6406 C554.5156,697.2344 554.8438,696.7813 554.8438,696.3906 C554.8438,695.9375 554.4531,695.5469 553.9844,695.5469 C553.7656,695.5469 553.5625,695.625 553.375,695.8125 C552.9219,696.2969 552.9219,696.2969 552.7344,696.3906 C552.3125,696.6563 551.625,696.7813 550.8594,696.7813 C548.8125,696.7813 547.5156,695.6875 547.5156,693.9844 L547.5156,692.8906 C547.5156,691.1094 548.7656,689.7969 550.5,689.7969 C551.0781,689.7969 551.6875,689.9531 552.1563,690.2031 C552.6406,690.4844 552.8125,690.7031 552.9063,691.1094 C552.9688,691.5156 553,691.6406 553.1406,691.7656 C553.2813,691.9063 553.5156,692.0156 553.7344,692.0156 C554,692.0156 554.2656,691.875 554.4375,691.6563 C554.5469,691.5 554.5781,691.3125 554.5781,690.8906 L554.5781,689.4688 C554.5781,689.0313 554.5625,688.9063 554.4688,688.75 C554.3125,688.4844 554.0313,688.3438 553.7344,688.3438 C553.4375,688.3438 553.2344,688.4375 553.0156,688.75 L552.8438,688.6719 Z " fill="#000000"/><text fill="#000000" font-family="sans-serif" font-size="14" lengthAdjust="spacing" textLength="46" x="564.5" y="697.8467">Yellow</text><line style="stroke:#181818;stroke-width:0.5;" x1="536.5" x2="612.5" y1="709" y2="709"/><line style="stroke:#181818;stroke-width:0.5;" x1="536.5" x2="612.5" y1="717" y2="717"/></g><!--class Cian--><g id="elem_Cian"><rect codeLine="19" fill="#F1F1F1" height="48" id="Cian" rx="2.5" ry="2.5" style="stroke:#181818;stroke-width:0.5;" width="63" x="649" y="677"/><ellipse cx="664" cy="693" fill="#ADD1B2" rx="11" ry="11" style="stroke:#181818;stroke-width:1.0;"/><path d="M666.3438,688.6719 C665.4063,688.2344 664.8125,688.0938 663.9375,688.0938 C661.3125,688.0938 659.3125,690.1719 659.3125,692.8906 L659.3125,694.0156 C659.3125,696.5938 661.4219,698.4844 664.3125,698.4844 C665.5313,698.4844 666.6875,698.1875 667.4375,697.6406 C668.0156,697.2344 668.3438,696.7813 668.3438,696.3906 C668.3438,695.9375 667.9531,695.5469 667.4844,695.5469 C667.2656,695.5469 667.0625,695.625 666.875,695.8125 C666.4219,696.2969 666.4219,696.2969 666.2344,696.3906 C665.8125,696.6563 665.125,696.7813 664.3594,696.7813 C662.3125,696.7813 661.0156,695.6875 661.0156,693.9844 L661.0156,692.8906 C661.0156,691.1094 662.2656,689.7969 664,689.7969 C664.5781,689.7969 665.1875,689.9531 665.6563,690.2031 C666.1406,690.4844 666.3125,690.7031 666.4063,691.1094 C666.4688,691.5156 666.5,691.6406 666.6406,691.7656 C666.7813,691.9063 667.0156,692.0156 667.2344,692.0156 C667.5,692.0156 667.7656,691.875 667.9375,691.6563 C668.0469,691.5 668.0781,691.3125 668.0781,690.8906 L668.0781,689.4688 C668.0781,689.0313 668.0625,688.9063 667.9688,688.75 C667.8125,688.4844 667.5313,688.3438 667.2344,688.3438 C666.9375,688.3438 666.7344,688.4375 666.5156,688.75 L666.3438,688.6719 Z " fill="#000000"/><text fill="#000000" font-family="sans-serif" font-size="14" lengthAdjust="spacing" textLength="31" x="678" y="697.8467">Cian</text><line style="stroke:#181818;stroke-width:0.5;" x1="650" x2="711" y1="709" y2="709"/><line style="stroke:#181818;stroke-width:0.5;" x1="650" x2="711" y1="717" y2="717"/></g><!--class Magenta--><g id="elem_Magenta"><rect codeLine="20" fill="#F1F1F1" height="48" id="Magenta" rx="2.5" ry="2.5" style="stroke:#181818;stroke-width:0.5;" width="94" x="747.5" y="677"/><ellipse cx="762.5" cy="693" fill="#ADD1B2" rx="11" ry="11" style="stroke:#181818;stroke-width:1.0;"/><path d="M764.8438,688.6719 C763.9063,688.2344 763.3125,688.0938 762.4375,688.0938 C759.8125,688.0938 757.8125,690.1719 757.8125,692.8906 L757.8125,694.0156 C757.8125,696.5938 759.9219,698.4844 762.8125,698.4844 C764.0313,698.4844 765.1875,698.1875 765.9375,697.6406 C766.5156,697.2344 766.8438,696.7813 766.8438,696.3906 C766.8438,695.9375 766.4531,695.5469 765.9844,695.5469 C765.7656,695.5469 765.5625,695.625 765.375,695.8125 C764.9219,696.2969 764.9219,696.2969 764.7344,696.3906 C764.3125,696.6563 763.625,696.7813 762.8594,696.7813 C760.8125,696.7813 759.5156,695.6875 759.5156,693.9844 L759.5156,692.8906 C759.5156,691.1094 760.7656,689.7969 762.5,689.7969 C763.0781,689.7969 763.6875,689.9531 764.1563,690.2031 C764.6406,690.4844 764.8125,690.7031 764.9063,691.1094 C764.9688,691.5156 765,691.6406 765.1406,691.7656 C765.2813,691.9063 765.5156,692.0156 765.7344,692.0156 C766,692.0156 766.2656,691.875 766.4375,691.6563 C766.5469,691.5 766.5781,691.3125 766.5781,690.8906 L766.5781,689.4688 C766.5781,689.0313 766.5625,688.9063 766.4688,688.75 C766.3125,688.4844 766.0313,688.3438 765.7344,688.3438 C765.4375,688.3438 765.2344,688.4375 765.0156,688.75 L764.8438,688.6719 Z " fill="#000000"/><text fill="#000000" font-family="sans-serif" font-size="14" lengthAdjust="spacing" textLength="62" x="776.5" y="697.8467">Magenta</text><line style="stroke:#181818;stroke-width:0.5;" x1="748.5" x2="840.5" y1="709" y2="709"/><line style="stroke:#181818;stroke-width:0.5;" x1="748.5" x2="840.5" y1="717" y2="717"/></g><!--reverse link Mastermind to Board--><g id="link_Mastermind_Board"><path codeLine="22" d="M351.6002,61.6935 C302.4722,94.1345 225.722,150.992 173.5,225 C146.625,263.087 139.215,318.757 137.208,349.832 " fill="none" id="Mastermind-backto-Board" style="stroke:#181818;stroke-width:1.0;"/><polygon fill="#181818" points="361.614,55.081,354.403,55.0493,351.6002,61.6935,358.8113,61.7251,361.614,55.081" style="stroke:#181818;stroke-width:1.0;"/></g><!--reverse link Mastermind to Player--><g id="link_Mastermind_Player"><path codeLine="23" d="M398.5,67.217 C398.5,85.165 398.5,97.892 398.5,115.828 " fill="none" id="Mastermind-backto-Player" style="stroke:#181818;stroke-width:1.0;"/><polygon fill="#181818" points="398.5,55.217,394.5,61.217,398.5,67.217,402.5,61.217,398.5,55.217" style="stroke:#181818;stroke-width:1.0;"/><text fill="#000000" font-family="sans-serif" font-size="13" lengthAdjust="spacing" textLength="8" x="389.475" y="104.796">2</text></g><!--reverse link Mastermind to Token--><g id="link_Mastermind_Token"><path codeLine="24" d="M327.9997,38.3642 C225.5457,48.9662 36.5,76.496 36.5,139 C36.5,139 36.5,139 36.5,375 C36.5,412.504 69.6974,442.311 97.8374,460.841 " fill="none" id="Mastermind-backto-Token" style="stroke:#181818;stroke-width:1.0;"/><polygon fill="#181818" points="339.936,37.129,333.5561,33.7678,327.9997,38.3642,334.3796,41.7253,339.936,37.129" style="stroke:#181818;stroke-width:1.0;"/><text fill="#000000" font-family="sans-serif" font-size="13" lengthAdjust="spacing" textLength="16" x="74.1089" y="453.0066">80</text></g><!--reverse link Mastermind to Attempt--><g id="link_Mastermind_Attempt"><path codeLine="25" d="M450.3619,61.076 C478.8449,77.346 506.847,94.092 539.5,116 C606.45,160.918 624.654,170.978 684.5,225 C729.853,265.939 777.032,319.833 802.475,349.998 " fill="none" id="Mastermind-backto-Attempt" style="stroke:#181818;stroke-width:1.0;"/><polygon fill="#181818" points="439.942,55.124,443.1679,61.5733,450.3619,61.076,447.1359,54.6267,439.942,55.124" style="stroke:#181818;stroke-width:1.0;"/><text fill="#000000" font-family="sans-serif" font-size="13" lengthAdjust="spacing" textLength="16" x="779.5498" y="339.0095">10</text></g><!--reverse link Mastermind to Action--><g id="link_Mastermind_Action"><path codeLine="26" d="M431.7365,63.3498 C475.6975,104.8148 558.74,183.143 602.823,224.724 " fill="none" id="Mastermind-backto-Action" style="stroke:#181818;stroke-width:1.0;"/><polygon fill="#181818" points="423.007,55.116,424.6271,62.1427,431.7365,63.3498,430.1164,56.3231,423.007,55.116" style="stroke:#181818;stroke-width:1.0;"/></g><!--reverse link Player to SecretCombinationCreator--><g id="link_Player_SecretCombinationCreator"><path codeLine="28" d="M366.5122,177.8029 C350.9132,195.7509 341.23,206.892 325.64,224.828 " fill="none" id="Player-backto-SecretCombinationCreator" style="stroke:#181818;stroke-width:1.0;"/><polygon fill="none" points="378.32,164.217,361.9836,173.867,371.0408,181.7388,378.32,164.217" style="stroke:#181818;stroke-width:1.0;"/></g><!--reverse link Player to Decipher--><g id="link_Player_Decipher"><path codeLine="29" d="M433.8901,177.0646 C451.5021,195.0126 463.16,206.892 480.761,224.828 " fill="none" id="Player-backto-Decipher" style="stroke:#181818;stroke-width:1.0;"/><polygon fill="none" points="421.283,164.217,429.6076,181.267,438.1726,172.8622,421.283,164.217" style="stroke:#181818;stroke-width:1.0;"/></g><!--link SecretCombinationCreator to Board--><g id="link_SecretCombinationCreator_Board"><path codeLine="31" d="M208.382,273.015 C191.531,280.426 175.329,290.18 162.5,303 C149.937,315.554 144.6869,328.8644 141.2999,343.9684 " fill="none" id="SecretCombinationCreator-to-Board" style="stroke:#181818;stroke-width:1.0;"/><polygon fill="#181818" points="139.987,349.823,145.8594,341.9163,141.0811,344.9442,138.0532,340.1659,139.987,349.823" style="stroke:#181818;stroke-width:1.0;"/><text fill="#000000" font-family="sans-serif" font-size="13" lengthAdjust="spacing" textLength="168" x="163.5" y="316.0669">create secret combination</text></g><!--link SecretCombinationCreator to GenerateSecretCombination--><g id="link_SecretCombinationCreator_GenerateSecretCombination"><path codeLine="32" d="M405.765,273.136 C419.455,280.499 431.778,290.205 440.5,303 C454.231,323.142 442.5489,336.1794 417.9469,347.4374 " fill="none" id="SecretCombinationCreator-to-GenerateSecretCombination" style="stroke:#181818;stroke-width:1.0;stroke-dasharray:7.0,7.0;"/><polygon fill="#181818" points="412.491,349.934,422.3393,349.8263,417.0376,347.8535,419.0104,342.5518,412.491,349.934" style="stroke:#181818;stroke-width:1.0;"/></g><!--link Decipher to Board--><g id="link_Decipher_Board"><path codeLine="34" d="M455.46,273.052 C422.574,288.102 377.639,307.253 336.5,320 C273.639,339.477 254.369,330.549 191.5,350 C185.666,351.805 185.185,351.8062 179.304,354.1152 " fill="none" id="Decipher-to-Board" style="stroke:#181818;stroke-width:1.0;"/><polygon fill="#181818" points="173.719,356.308,183.5583,356.7422,178.3731,354.4807,180.6346,349.2955,173.719,356.308" style="stroke:#181818;stroke-width:1.0;"/><text fill="#000000" font-family="sans-serif" font-size="13" lengthAdjust="spacing" textLength="62" x="384.5" y="316.0669">deciphers</text></g><!--link Decipher to Attempt--><g id="link_Decipher_Attempt"><path codeLine="35" d="M552.839,269.084 C612.938,292.33 708.196,329.1745 767.753,352.2105 " fill="none" id="Decipher-to-Attempt" style="stroke:#181818;stroke-width:1.0;stroke-dasharray:7.0,7.0;"/><polygon fill="#181818" points="773.349,354.375,766.398,347.3976,768.6857,352.5713,763.512,354.859,773.349,354.375" style="stroke:#181818;stroke-width:1.0;"/><text fill="#000000" font-family="sans-serif" font-size="13" lengthAdjust="spacing" textLength="16" x="749.4528" y="347.6368">10</text></g><!--link Decipher to GenerateDecryption--><g id="link_Decipher_GenerateDecryption"><path codeLine="36" d="M530.585,273.135 C556.33,295.126 590.2687,324.1151 615.9737,346.0711 " fill="none" id="Decipher-to-GenerateDecryption" style="stroke:#181818;stroke-width:1.0;stroke-dasharray:7.0,7.0;"/><polygon fill="#181818" points="620.536,349.968,616.2905,341.0812,616.7341,346.7206,611.0947,347.1642,620.536,349.968" style="stroke:#181818;stroke-width:1.0;"/><text fill="#000000" font-family="sans-serif" font-size="13" lengthAdjust="spacing" textLength="32" x="577.5265" y="338.9718">1..10</text></g><!--link Decipher to ProposalTokens--><g id="link_Decipher_ProposalTokens"><path codeLine="37" d="M503.024,273.17 C501.747,335.38 498.3772,499.5533 497.0992,561.7993 " fill="none" id="Decipher-to-ProposalTokens" style="stroke:#181818;stroke-width:1.0;stroke-dasharray:7.0,7.0;"/><polygon fill="#181818" points="496.976,567.798,501.1599,558.882,497.0786,562.7991,493.1616,558.7178,496.976,567.798" style="stroke:#181818;stroke-width:1.0;"/><text fill="#000000" font-family="sans-serif" font-size="13" lengthAdjust="spacing" textLength="16" x="479.048" y="556.7583">80</text></g><!--reverse link Token to TokensResult--><g id="link_Token_TokensResult"><path codeLine="39" d="M136.5,525.217 C136.5,543.165 136.5,549.892 136.5,567.828 " fill="none" id="Token-backto-TokensResult" style="stroke:#181818;stroke-width:1.0;"/><polygon fill="none" points="136.5,507.217,130.5,525.217,142.5,525.217,136.5,507.217" style="stroke:#181818;stroke-width:1.0;"/></g><!--reverse link Token to ProposalTokens--><g id="link_Token_ProposalTokens"><path codeLine="40" d="M192.28,500.5792 C251.412,518.1542 348.318,546.957 423.459,569.291 " fill="none" id="Token-backto-ProposalTokens" style="stroke:#181818;stroke-width:1.0;"/><polygon fill="none" points="175.026,495.451,190.5706,506.3305,193.9894,494.8278,175.026,495.451" style="stroke:#181818;stroke-width:1.0;"/></g><!--reverse link Board to Token--><g id="link_Board_Token"><path codeLine="42" d="M136.5,410.217 C136.5,428.165 136.5,440.892 136.5,458.828 " fill="none" id="Board-backto-Token" style="stroke:#181818;stroke-width:1.0;"/><polygon fill="none" points="136.5,398.217,132.5,404.217,136.5,410.217,140.5,404.217,136.5,398.217" style="stroke:#181818;stroke-width:1.0;"/><text fill="#000000" font-family="sans-serif" font-size="13" lengthAdjust="spacing" textLength="29" x="103.7844" y="447.796">0-80</text></g><!--reverse link Action to GenerateSecretCombination--><g id="link_Action_GenerateSecretCombination"><path codeLine="44" d="M571.4472,275.7707 C539.6492,290.2647 510.161,303.311 469.5,320 C444.496,330.263 416.702,340.934 392.512,349.988 " fill="none" id="Action-backto-GenerateSecretCombination" style="stroke:#181818;stroke-width:1.0;"/><polygon fill="none" points="587.826,268.305,568.9587,270.3111,573.9358,281.2303,587.826,268.305" style="stroke:#181818;stroke-width:1.0;"/></g><!--reverse link Action to GenerateDecryption--><g id="link_Action_GenerateDecryption"><path codeLine="45" d="M634.1511,290.9016 C637.7271,312.8926 640.185,328.012 643.755,349.968 " fill="none" id="Action-backto-GenerateDecryption" style="stroke:#181818;stroke-width:1.0;"/><polygon fill="none" points="631.262,273.135,628.2289,291.8647,640.0733,289.9386,631.262,273.135" style="stroke:#181818;stroke-width:1.0;"/></g><!--link TokensResult to Black--><g id="link_TokensResult_Black"><path codeLine="47" d="M116.103,616.217 C100.3365,634.1649 82.5737,654.3842 66.8168,672.3203 " fill="none" id="TokensResult-to-Black" style="stroke:#181818;stroke-width:1.0;"/><polygon fill="#181818" points="62.8568,676.8279,71.8018,672.7064,66.1568,673.0715,65.7917,667.4265,62.8568,676.8279" style="stroke:#181818;stroke-width:1.0;"/><text fill="#000000" font-family="sans-serif" font-size="13" lengthAdjust="spacing" textLength="16" x="50.0232" y="665.7958">20</text></g><!--link TokensResult to White--><g id="link_TokensResult_White"><path codeLine="48" d="M139.538,616.217 C141.886,634.1649 144.3425,652.9425 146.6895,670.8786 " fill="none" id="TokensResult-to-White" style="stroke:#181818;stroke-width:1.0;"/><polygon fill="#181818" points="147.468,676.8279,150.2665,667.385,146.8193,671.8702,142.3341,668.423,147.468,676.8279" style="stroke:#181818;stroke-width:1.0;"/><text fill="#000000" font-family="sans-serif" font-size="13" lengthAdjust="spacing" textLength="16" x="128.6411" y="665.7958">20</text></g><!--link ProposalTokens to Red--><g id="link_ProposalTokens_Red"><path codeLine="50" d="M443.309,616.016 C405.307,632.6109 353.053,655.7398 307.5,677 C301.985,679.5741 301.5339,679.7545 295.9049,682.489 " fill="none" id="ProposalTokens-to-Red" style="stroke:#181818;stroke-width:1.0;"/><polygon fill="#181818" points="290.508,685.1107,300.3512,684.776,295.0054,682.9259,296.8555,677.5802,290.508,685.1107" style="stroke:#181818;stroke-width:1.0;"/></g><!--link ProposalTokens to Green--><g id="link_ProposalTokens_Green"><path codeLine="51" d="M467.641,616.217 C445.332,634.1649 419.2719,655.1307 396.9779,673.0668 " fill="none" id="ProposalTokens-to-Green" style="stroke:#181818;stroke-width:1.0;"/><polygon fill="#181818" points="392.303,676.8279,401.8227,674.3029,396.1987,673.6937,396.8079,668.0697,392.303,676.8279" style="stroke:#181818;stroke-width:1.0;"/></g><!--link ProposalTokens to Blue--><g id="link_ProposalTokens_Blue"><path codeLine="52" d="M490.424,616.217 C485.728,634.1649 480.7758,653.0872 476.0828,671.0233 " fill="none" id="ProposalTokens-to-Blue" style="stroke:#181818;stroke-width:1.0;"/><polygon fill="#181818" points="474.564,676.8279,480.7119,669.1335,475.8296,671.9907,472.9724,667.1085,474.564,676.8279" style="stroke:#181818;stroke-width:1.0;"/></g><!--link ProposalTokens to Yellow--><g id="link_ProposalTokens_Yellow"><path codeLine="53" d="M513.425,616.217 C526.508,634.1649 540.9986,654.0433 554.0736,671.9794 " fill="none" id="ProposalTokens-to-Yellow" style="stroke:#181818;stroke-width:1.0;"/><polygon fill="#181818" points="557.608,676.8279,555.5387,667.1989,554.6626,672.7875,549.074,671.9115,557.608,676.8279" style="stroke:#181818;stroke-width:1.0;"/></g><!--link ProposalTokens to Cian--><g id="link_ProposalTokens_Cian"><path codeLine="54" d="M536.425,616.217 C570.142,635.8244 612.5862,660.5064 643.7042,678.6022 " fill="none" id="ProposalTokens-to-Cian" style="stroke:#181818;stroke-width:1.0;"/><polygon fill="#181818" points="648.891,681.6184,643.1217,673.6362,644.5687,679.1049,639.1001,680.5519,648.891,681.6184" style="stroke:#181818;stroke-width:1.0;"/></g><!--link ProposalTokens to Magenta--><g id="link_ProposalTokens_Magenta"><path codeLine="55" d="M560.795,616.086 C616.916,636.2366 691.398,662.98 741.742,681.0567 " fill="none" id="ProposalTokens-to-Magenta" style="stroke:#181818;stroke-width:1.0;"/><polygon fill="#181818" points="747.389,683.0843,740.2702,676.2782,742.6832,681.3946,737.5667,683.8075,747.389,683.0843" style="stroke:#181818;stroke-width:1.0;"/></g><!--SRC=[VLDDQyCm3BtxLvWS1mbTJsECGfj1JuNH3SQEcYjMKpSEjiiexCSl_ceSpzafydjFiloaC05QqnreW-hCkmDX3jX8K35-aoViqbZlKL-42T2BahtK83mLGG5NLE7mYaoXQUNvatTWkEnQXM1af9-HyVvuKw-DmNCVgw-PJGY7BNQemE2VWXa_L5JNFY4s0jWfnEz7RZ34UuoFt2h4KNs9WWyKGdw7GyiXIdRmXPq1GaRdw5rT1zyoi5fMqP2SULXKmT-SkH-OQ4N61K-8hqcVVWPirkDKT7EQpCbfNQ_y8-WZPHP3gfsMiiJksVIcMVqp9H8Rc5np2A0UQLjcua36D8qb2-EUwgoxsNeIz_LsJ9OvmVCKtwYqKrdKuyI8duFFcNzqIPLqJD8kd2_LShZ2RsoPynjCfcqwskvp0VRBNI3SfXVmiFO5nlq31Jpy4By0]--></g></svg>